<svg width="52.55px" height="142.39999999999998px" xmlns="http://www.w3.org/2000/svg" viewBox="223.725 3.8000000000000114 52.55 142.39999999999998" style="background: rgba(0, 0, 0, 0);" preserveAspectRatio="xMidYMid"><defs><linearGradient id="editing-outline-gradient" x1="-0.5" x2="1.5" y1="0.5" y2="0.5"><stop offset="0" stop-color="#ff4000"></stop><stop offset="1" stop-color="#ee4208"></stop></linearGradient><filter id="editing-outline" x="-100%" y="-100%" width="300%" height="300%"><feMorphology in="SourceGraphic" operator="dilate" radius="3" result="outline"></feMorphology><feComposite operator="out" in="outline" in2="SourceAlpha"></feComposite></filter></defs><g filter="url(#editing-outline)"><g transform="translate(238.4050089120865, 77.15499973297119)"><path d="M0.86-12.98L2.09-14.15L2.09-14.15Q2.09-14.21 3.48-14.43L3.48-14.43L3.48-14.43Q4.86-14.64 7.01-14.89L7.01-14.89L7.01-14.89Q9.17-15.13 11.87-15.38L11.87-15.38L11.87-15.38Q14.58-15.63 17.35-15.87L17.35-15.87L17.35-15.87Q17.60-15.87 18.33-15.90L18.33-15.90L18.33-15.90Q19.07-15.93 19.84-15.97L19.84-15.97L19.84-15.97Q20.61-16.00 21.32-16.03L21.32-16.03L21.32-16.03Q22.03-16.06 22.33-16.06L22.33-16.06L22.33-16.06Q22.33-15.26 21.99-14.58L21.99-14.58L21.99-14.58Q21.66-13.90 20.92-13.54L20.92-13.54L20.92-13.54Q19.44-13.35 17.23-13.14L17.23-13.14L17.23-13.14Q15.01-12.92 12.67-12.67L12.67-12.67L12.67-12.67Q10.34-12.43 8.12-12.18L8.12-12.18L8.12-12.18Q5.91-11.94 4.43-11.81L4.43-11.81L4.43-11.81Q4.31-11.81 3.85-11.78L3.85-11.78L3.85-11.78Q3.38-11.75 3.14-11.75L3.14-11.75L3.14-11.75Q2.34-11.75 1.78-11.87L1.78-11.87L1.78-11.87Q1.23-12.00 0.86-12.98L0.86-12.98Z" fill="url(#editing-outline-gradient)"></path></g></g><style>text {
  font-size: 64px;
  font-family: Arial Black;
  dominant-baseline: central;
  text-anchor: middle;
}</style></svg>