<svg width="127.60625px" height="142.39999999999998px" xmlns="http://www.w3.org/2000/svg" viewBox="186.196875 3.8000000000000114 127.60625 142.39999999999998" style="background: rgba(0, 0, 0, 0);" preserveAspectRatio="xMidYMid"><defs><linearGradient id="editing-outline-gradient" x1="-0.5" x2="1.5" y1="0.5" y2="0.5"><stop offset="0" stop-color="#ff4000"></stop><stop offset="1" stop-color="#ee4208"></stop></linearGradient><filter id="editing-outline" x="-100%" y="-100%" width="300%" height="300%"><feMorphology in="SourceGraphic" operator="dilate" radius="3" result="outline"></feMorphology><feComposite operator="out" in="outline" in2="SourceAlpha"></feComposite></filter></defs><g filter="url(#editing-outline)"><g transform="translate(210.16501379013062, 92.2549991607666)"><path d="M2.15-15.32L2.15-15.32L2.15-15.32Q2.15-16.49 2.25-18.09L2.25-18.09L2.25-18.09Q2.34-19.69 2.61-21.41L2.61-21.41L2.61-21.41Q2.89-23.13 3.41-24.79L3.41-24.79L3.41-24.79Q3.94-26.46 4.80-27.81L4.80-27.81L4.80-27.81Q5.66-29.16 6.89-29.99L6.89-29.99L6.89-29.99Q8.12-30.82 9.84-30.82L9.84-30.82L9.84-30.82Q13.35-30.82 16.00-29.50L16.00-29.50L16.00-29.50Q18.64-28.18 20.36-25.93L20.36-25.93L20.36-25.93Q22.09-23.69 22.95-20.73L22.95-20.73L22.95-20.73Q23.81-17.78 23.81-14.52L23.81-14.52L23.81-14.52Q23.81-13.17 23.56-11.57L23.56-11.57L23.56-11.57Q23.32-9.97 22.76-8.34L22.76-8.34L22.76-8.34Q22.21-6.71 21.38-5.20L21.38-5.20L21.38-5.20Q20.55-3.69 19.44-2.52L19.44-2.52L19.44-2.52Q18.33-1.35 16.86-0.65L16.86-0.65L16.86-0.65Q15.38 0.06 13.60 0.06L13.60 0.06L13.60 0.06Q10.27 0.06 8.09-1.38L8.09-1.38L8.09-1.38Q5.91-2.83 4.58-5.04L4.58-5.04L4.58-5.04Q3.26-7.26 2.71-10.00L2.71-10.00L2.71-10.00Q2.15-12.74 2.15-15.32ZM4.61-16.55L4.61-16.55L4.61-16.55Q4.61-14.15 4.74-11.81L4.74-11.81L4.74-11.81Q4.86-9.47 5.63-7.63L5.63-7.63L5.63-7.63Q6.40-5.78 7.97-4.61L7.97-4.61L7.97-4.61Q9.54-3.45 12.43-3.45L12.43-3.45L12.43-3.45Q14.89-3.45 16.61-4.34L16.61-4.34L16.61-4.34Q18.33-5.23 19.41-6.74L19.41-6.74L19.41-6.74Q20.49-8.24 20.95-10.31L20.95-10.31L20.95-10.31Q21.41-12.37 21.41-14.70L21.41-14.70L21.41-14.70Q21.10-19.01 19.63-21.90L19.63-21.90L19.63-21.90Q18.15-24.79 16.12-26.27L16.12-26.27L16.12-26.27Q14.09-27.75 11.87-27.87L11.87-27.87L11.87-27.87Q9.66-27.99 7.88-26.76L7.88-26.76L7.88-26.76Q6.09-25.53 5.11-22.98L5.11-22.98L5.11-22.98Q4.12-20.43 4.61-16.55ZM26.27-12.98L27.50-14.15L27.50-14.15Q27.50-14.21 28.89-14.43L28.89-14.43L28.89-14.43Q30.27-14.64 32.42-14.89L32.42-14.89L32.42-14.89Q34.58-15.13 37.28-15.38L37.28-15.38L37.28-15.38Q39.99-15.63 42.76-15.87L42.76-15.87L42.76-15.87Q43.00-15.87 43.74-15.90L43.74-15.90L43.74-15.90Q44.48-15.93 45.25-15.97L45.25-15.97L45.25-15.97Q46.02-16.00 46.73-16.03L46.73-16.03L46.73-16.03Q47.43-16.06 47.74-16.06L47.74-16.06L47.74-16.06Q47.74-15.26 47.40-14.58L47.40-14.58L47.40-14.58Q47.07-13.90 46.33-13.54L46.33-13.54L46.33-13.54Q44.85-13.35 42.64-13.14L42.64-13.14L42.64-13.14Q40.42-12.92 38.08-12.67L38.08-12.67L38.08-12.67Q35.75-12.43 33.53-12.18L33.53-12.18L33.53-12.18Q31.32-11.94 29.84-11.81L29.84-11.81L29.84-11.81Q29.72-11.81 29.25-11.78L29.25-11.78L29.25-11.78Q28.79-11.75 28.55-11.75L28.55-11.75L28.55-11.75Q27.75-11.75 27.19-11.87L27.19-11.87L27.19-11.87Q26.64-12.00 26.27-12.98L26.27-12.98ZM60.85-3.57L60.85-3.57L60.85-3.57Q59.19-2.65 57.83-2.46L57.83-2.46L57.83-2.46Q56.48-2.28 54.76-2.28L54.76-2.28L54.76-2.28Q54.08-2.28 53.25-2.37L53.25-2.37L53.25-2.37Q52.42-2.46 51.71-2.80L51.71-2.80L51.71-2.80Q51.00-3.14 50.54-3.72L50.54-3.72L50.54-3.72Q50.08-4.31 50.08-5.35L50.08-5.35L50.08-5.35Q50.08-5.97 51.31-6.21L51.31-6.21L51.31-6.21Q52.54-6.46 54.42-6.80L54.42-6.80L54.42-6.80Q56.29-7.14 58.48-7.81L58.48-7.81L58.48-7.81Q60.66-8.49 62.54-10.00L62.54-10.00L62.54-10.00Q64.42-11.50 65.68-14.15L65.68-14.15L65.68-14.15Q66.94-16.80 66.94-20.98L66.94-20.98L66.94-20.98Q66.94-22.76 66.63-24.70L66.63-24.70L66.63-24.70Q66.32-26.64 65.52-28.24L65.52-28.24L65.52-28.24Q64.72-29.84 63.28-30.92L63.28-30.92L63.28-30.92Q61.83-31.99 59.55-31.99L59.55-31.99L59.55-31.99Q58.63-31.99 57.89-31.56L57.89-31.56L57.89-31.56Q57.16-31.13 56.54-30.55L56.54-30.55L56.54-30.55Q55.92-29.96 55.37-29.22L55.37-29.22L55.37-29.22Q54.82-28.49 54.17-27.87L54.17-27.87L54.17-27.87Q53.53-27.25 52.76-26.85L52.76-26.85L52.76-26.85Q51.99-26.46 50.88-26.46L50.88-26.46L50.88-26.46Q50.88-28.12 51.65-29.56L51.65-29.56L51.65-29.56Q52.42-31.01 53.68-32.08L53.68-32.08L53.68-32.08Q54.94-33.16 56.51-33.78L56.51-33.78L56.51-33.78Q58.08-34.39 59.68-34.39L59.68-34.39L59.68-34.39Q62.14-34.39 64.14-33.16L64.14-33.16L64.14-33.16Q66.14-31.93 67.52-30.02L67.52-30.02L67.52-30.02Q68.91-28.12 69.64-25.81L69.64-25.81L69.64-25.81Q70.38-23.50 70.38-21.29L70.38-21.29L70.38-21.29Q70.38-19.13 69.77-17.04L69.77-17.04L69.77-17.04Q69.15-14.95 68.14-12.98L68.14-12.98L68.14-12.98Q67.12-11.01 65.86-9.23L65.86-9.23L65.86-9.23Q64.60-7.44 63.25-5.91L63.25-5.91L63.25-5.91Q64.60-4.74 66.41-4.06L66.41-4.06L66.41-4.06Q68.23-3.38 70.14-3.01L70.14-3.01L70.14-3.01Q72.04-2.65 73.92-2.49L73.92-2.49L73.92-2.49Q75.80-2.34 77.40-2.34L77.40-2.34L77.40-2.34Q77.46-2.28 77.49-2.06L77.49-2.06L77.49-2.06Q77.52-1.85 77.52-1.78L77.52-1.78L77.52-1.78Q77.52-1.11 77.03-0.71L77.03-0.71L77.03-0.71Q76.54-0.31 75.86-0.12L75.86-0.12L75.86-0.12Q75.18 0.06 74.44 0.09L74.44 0.09L74.44 0.09Q73.71 0.12 73.21 0.12L73.21 0.12L73.21 0.12Q71.55 0.12 70.08-0.18L70.08-0.18L70.08-0.18Q68.60-0.49 67.12-1.02L67.12-1.02L67.12-1.02Q65.65-1.54 64.11-2.18L64.11-2.18L64.11-2.18Q62.57-2.83 60.85-3.57ZM57.34-4.68L57.34-4.68L57.34-4.68Q57.46-4.98 57.06-5.11L57.06-5.11L57.06-5.11Q56.66-5.23 56.17-5.23L56.17-5.23L56.17-5.23Q55.68-5.23 55.25-5.11L55.25-5.11L55.25-5.11Q54.82-4.98 54.94-4.68L54.94-4.68L54.94-4.68Q55.13-4.43 55.46-4.31L55.46-4.31L55.46-4.31Q55.80-4.18 56.17-4.18L56.17-4.18L56.17-4.18Q56.54-4.18 56.85-4.31L56.85-4.31L56.85-4.31Q57.16-4.43 57.34-4.68Z" fill="url(#editing-outline-gradient)"></path></g></g><style>text {
  font-size: 64px;
  font-family: Arial Black;
  dominant-baseline: central;
  text-anchor: middle;
}</style></svg>