<svg width="122.43124999999999px" height="142.39999999999998px" xmlns="http://www.w3.org/2000/svg" viewBox="188.784375 3.8000000000000114 122.43124999999999 142.39999999999998" style="background: rgba(0, 0, 0, 0);" preserveAspectRatio="xMidYMid"><defs><linearGradient id="editing-outline-gradient" x1="-0.5" x2="1.5" y1="0.5" y2="0.5"><stop offset="0" stop-color="#ff4000"></stop><stop offset="1" stop-color="#ee4208"></stop></linearGradient><filter id="editing-outline" x="-100%" y="-100%" width="300%" height="300%"><feMorphology in="SourceGraphic" operator="dilate" radius="3" result="outline"></feMorphology><feComposite operator="out" in="outline" in2="SourceAlpha"></feComposite></filter></defs><g filter="url(#editing-outline)"><g transform="translate(212.160005569458, 92.80999946594238)"><path d="M3.01-2.34L3.01-3.69L3.01-3.69Q4.06-3.69 5.08-3.48L5.08-3.48L5.08-3.48Q6.09-3.26 7.11-2.98L7.11-2.98L7.11-2.98Q8.12-2.71 9.17-2.49L9.17-2.49L9.17-2.49Q10.21-2.28 11.32-2.28L11.32-2.28L11.32-2.28Q13.35-2.28 15.29-2.92L15.29-2.92L15.29-2.92Q17.23-3.57 18.70-4.80L18.70-4.80L18.70-4.80Q20.18-6.03 21.04-7.81L21.04-7.81L21.04-7.81Q21.90-9.60 21.90-11.87L21.90-11.87L21.90-11.87Q21.90-13.47 21.16-14.80L21.16-14.80L21.16-14.80Q20.43-16.12 19.23-17.04L19.23-17.04L19.23-17.04Q18.03-17.96 16.55-18.49L16.55-18.49L16.55-18.49Q15.07-19.01 13.66-19.01L13.66-19.01L13.66-19.01Q13.41-19.01 13.01-19.01L13.01-19.01L13.01-19.01Q12.61-19.01 12.24-18.98L12.24-18.98L12.24-18.98Q11.87-18.95 11.60-18.92L11.60-18.92L11.60-18.92Q11.32-18.89 11.26-18.89L11.26-18.89L11.26-18.89Q11.14-18.89 10.61-18.70L10.61-18.70L10.61-18.70Q10.09-18.52 9.51-18.30L9.51-18.30L9.51-18.30Q8.92-18.09 8.37-17.90L8.37-17.90L8.37-17.90Q7.81-17.72 7.69-17.72L7.69-17.72L7.69-17.72Q7.57-17.72 7.38-17.84L7.38-17.84L7.38-17.84Q7.20-17.96 6.98-18.15L6.98-18.15L6.98-18.15Q6.77-18.33 6.64-18.55L6.64-18.55L6.64-18.55Q6.52-18.76 6.52-18.89L6.52-18.89L6.52-18.89Q6.89-19.26 7.94-20.27L7.94-20.27L7.94-20.27Q8.98-21.29 10.12-22.39L10.12-22.39L10.12-22.39Q11.26-23.50 12.24-24.52L12.24-24.52L12.24-24.52Q13.23-25.53 13.60-25.96L13.60-25.96L13.60-25.96Q13.84-26.27 14.24-26.82L14.24-26.82L14.24-26.82Q14.64-27.38 15.01-27.93L15.01-27.93L15.01-27.93Q15.38-28.49 15.66-28.95L15.66-28.95L15.66-28.95Q15.93-29.41 15.93-29.53L15.93-29.53L15.93-29.53Q15.57-31.50 14.55-32.12L14.55-32.12L14.55-32.12Q13.54-32.73 12.15-32.55L12.15-32.55L12.15-32.55Q10.77-32.36 9.20-31.53L9.20-31.53L9.20-31.53Q7.63-30.70 6.15-29.75L6.15-29.75L6.15-29.75Q4.68-28.79 3.41-27.96L3.41-27.96L3.41-27.96Q2.15-27.13 1.42-26.82L1.42-26.82L1.42-26.82Q1.42-28.85 2.68-30.45L2.68-30.45L2.68-30.45Q3.94-32.05 5.78-33.19L5.78-33.19L5.78-33.19Q7.63-34.33 9.78-34.91L9.78-34.91L9.78-34.91Q11.94-35.50 13.72-35.50L13.72-35.50L13.72-35.50Q14.58-35.50 15.38-34.98L15.38-34.98L15.38-34.98Q16.18-34.45 16.86-33.65L16.86-33.65L16.86-33.65Q17.53-32.85 17.93-31.90L17.93-31.90L17.93-31.90Q18.33-30.95 18.33-30.15L18.33-30.15L18.33-30.15Q18.33-29.16 18.00-28.09L18.00-28.09L18.00-28.09Q17.66-27.01 17.17-25.99L17.17-25.99L17.17-25.99Q16.67-24.98 16.03-24.06L16.03-24.06L16.03-24.06Q15.38-23.13 14.83-22.39L14.83-22.39L14.83-22.39Q16.43-21.90 18.12-21.01L18.12-21.01L18.12-21.01Q19.81-20.12 21.16-18.86L21.16-18.86L21.16-18.86Q22.52-17.60 23.38-15.97L23.38-15.97L23.38-15.97Q24.24-14.33 24.24-12.43L24.24-12.43L24.24-12.43Q24.24-9.78 23.35-7.48L23.35-7.48L23.35-7.48Q22.46-5.17 20.86-3.48L20.86-3.48L20.86-3.48Q19.26-1.78 17.04-0.83L17.04-0.83L17.04-0.83Q14.83 0.12 12.24 0.12L12.24 0.12L12.24 0.12Q11.57 0.12 10.06 0.09L10.06 0.09L10.06 0.09Q8.55 0.06 6.98-0.18L6.98-0.18L6.98-0.18Q5.41-0.43 4.21-0.92L4.21-0.92L4.21-0.92Q3.01-1.42 3.01-2.34L3.01-2.34ZM26.27-12.98L27.50-14.15L27.50-14.15Q27.50-14.21 28.89-14.43L28.89-14.43L28.89-14.43Q30.27-14.64 32.42-14.89L32.42-14.89L32.42-14.89Q34.58-15.13 37.28-15.38L37.28-15.38L37.28-15.38Q39.99-15.63 42.76-15.87L42.76-15.87L42.76-15.87Q43.00-15.87 43.74-15.90L43.74-15.90L43.74-15.90Q44.48-15.93 45.25-15.97L45.25-15.97L45.25-15.97Q46.02-16.00 46.73-16.03L46.73-16.03L46.73-16.03Q47.43-16.06 47.74-16.06L47.74-16.06L47.74-16.06Q47.74-15.26 47.40-14.58L47.40-14.58L47.40-14.58Q47.07-13.90 46.33-13.54L46.33-13.54L46.33-13.54Q44.85-13.35 42.64-13.14L42.64-13.14L42.64-13.14Q40.42-12.92 38.08-12.67L38.08-12.67L38.08-12.67Q35.75-12.43 33.53-12.18L33.53-12.18L33.53-12.18Q31.32-11.94 29.84-11.81L29.84-11.81L29.84-11.81Q29.72-11.81 29.25-11.78L29.25-11.78L29.25-11.78Q28.79-11.75 28.55-11.75L28.55-11.75L28.55-11.75Q27.75-11.75 27.19-11.87L27.19-11.87L27.19-11.87Q26.64-12.00 26.27-12.98L26.27-12.98ZM51.68-3.57L52.91-4.68L52.91-4.68Q55.13-3.94 57.49-3.11L57.49-3.11L57.49-3.11Q59.86-2.28 62.32-2.28L62.32-2.28L62.32-2.28Q63.80-2.28 65.46-2.89L65.46-2.89L65.46-2.89Q67.12-3.51 68.51-4.55L68.51-4.55L68.51-4.55Q69.89-5.60 70.84-7.01L70.84-7.01L70.84-7.01Q71.80-8.43 71.80-10.03L71.80-10.03L71.80-10.03Q71.80-11.87 70.88-13.35L70.88-13.35L70.88-13.35Q69.95-14.83 68.54-15.84L68.54-15.84L68.54-15.84Q67.12-16.86 65.37-17.41L65.37-17.41L65.37-17.41Q63.62-17.96 61.95-17.96L61.95-17.96L61.95-17.96Q60.60-17.96 59.34-17.44L59.34-17.44L59.34-17.44Q58.08-16.92 56.85-16.40L56.85-16.40L56.85-16.40Q55.62-15.87 54.36-15.50L54.36-15.50L54.36-15.50Q53.09-15.13 51.68-15.38L51.68-15.38L51.68-15.38Q51.37-17.04 51.13-18.36L51.13-18.36L51.13-18.36Q50.88-19.69 50.76-20.95L50.76-20.95L50.76-20.95Q50.63-22.21 50.57-23.41L50.57-23.41L50.57-23.41Q50.51-24.61 50.51-26.09L50.51-26.09L50.51-26.09Q50.51-28.85 51.53-30.30L51.53-30.30L51.53-30.30Q52.54-31.75 54.20-32.42L54.20-32.42L54.20-32.42Q55.86-33.10 57.99-33.19L57.99-33.19L57.99-33.19Q60.11-33.28 62.32-33.28L62.32-33.28L62.32-33.28Q62.69-33.28 63.46-33.25L63.46-33.25L63.46-33.25Q64.23-33.22 65.00-33.19L65.00-33.19L65.00-33.19Q65.77-33.16 66.35-33.13L66.35-33.13L66.35-33.13Q66.94-33.10 67.06-33.10L67.06-33.10L67.80-31.01L67.80-31.01Q66.20-30.95 64.26-30.95L64.26-30.95L64.26-30.95Q62.32-30.95 60.45-30.82L60.45-30.82L60.45-30.82Q58.57-30.70 56.85-30.42L56.85-30.42L56.85-30.42Q55.13-30.15 54.02-29.53L54.02-29.53L54.02-18.89L54.02-18.89Q55.92-20.00 57.83-20.09L57.83-20.09L57.83-20.09Q59.74-20.18 61.77-20.18L61.77-20.18L61.77-20.18Q63.92-20.18 66.14-19.53L66.14-19.53L66.14-19.53Q68.35-18.89 70.14-17.60L70.14-17.60L70.14-17.60Q71.92-16.30 73.09-14.43L73.09-14.43L73.09-14.43Q74.26-12.55 74.26-10.03L74.26-10.03L74.26-10.03Q74.26-8.18 73.27-6.40L73.27-6.40L73.27-6.40Q72.29-4.61 70.72-3.17L70.72-3.17L70.72-3.17Q69.15-1.72 67.25-0.83L67.25-0.83L67.25-0.83Q65.34 0.06 63.55 0.06L63.55 0.06L63.55 0.06Q62.14 0.06 60.32 0.03L60.32 0.03L60.32 0.03Q58.51 0 56.72-0.31L56.72-0.31L56.72-0.31Q54.94-0.62 53.56-1.35L53.56-1.35L53.56-1.35Q52.17-2.09 51.68-3.57L51.68-3.57Z" fill="url(#editing-outline-gradient)"></path></g></g><style>text {
  font-size: 64px;
  font-family: Arial Black;
  dominant-baseline: central;
  text-anchor: middle;
}</style></svg>