<svg width="121.58749999999999px" height="142.39999999999998px" xmlns="http://www.w3.org/2000/svg" viewBox="189.20625 3.8000000000000114 121.58749999999999 142.39999999999998" style="background: rgba(0, 0, 0, 0);" preserveAspectRatio="xMidYMid"><defs><linearGradient id="editing-outline-gradient" x1="-0.5" x2="1.5" y1="0.5" y2="0.5"><stop offset="0" stop-color="#ff4000"></stop><stop offset="1" stop-color="#ee4208"></stop></linearGradient><filter id="editing-outline" x="-100%" y="-100%" width="300%" height="300%"><feMorphology in="SourceGraphic" operator="dilate" radius="3" result="outline"></feMorphology><feComposite operator="out" in="outline" in2="SourceAlpha"></feComposite></filter></defs><g filter="url(#editing-outline)"><g transform="translate(212.90001982450485, 92.25723266601562)"><path d="M0.80-12.49L0.80-12.49L0.80-12.49Q0.98-14.40 1.54-17.35L1.54-17.35L1.54-17.35Q2.09-20.30 2.98-23.44L2.98-23.44L2.98-23.44Q3.88-26.58 5.11-29.44L5.11-29.44L5.11-29.44Q6.34-32.30 7.88-34.02L7.88-34.02L10.34-31.87L10.34-31.87Q9.23-30.82 8.24-29.22L8.24-29.22L8.24-29.22Q7.26-27.62 6.46-25.78L6.46-25.78L6.46-25.78Q5.66-23.93 5.08-21.99L5.08-21.99L5.08-21.99Q4.49-20.06 4.06-18.24L4.06-18.24L4.06-18.24Q3.63-16.43 3.41-14.89L3.41-14.89L3.41-14.89Q3.20-13.35 3.20-12.43L3.20-12.43L3.20-12.43Q3.20-12.12 3.38-10.89L3.38-10.89L3.38-10.89Q3.57-9.66 3.94-8.24L3.94-8.24L3.94-8.24Q4.31-6.83 4.86-5.72L4.86-5.72L4.86-5.72Q5.41-4.61 6.21-4.61L6.21-4.61L6.21-4.61Q6.28-4.61 6.49-4.65L6.49-4.65L6.49-4.65Q6.71-4.68 6.77-4.68L6.77-4.68L6.77-4.68Q7.44-6.64 8.31-8.58L8.31-8.58L8.31-8.58Q9.17-10.52 10.37-12.03L10.37-12.03L10.37-12.03Q11.57-13.54 13.20-14.52L13.20-14.52L13.20-14.52Q14.83-15.50 17.10-15.50L17.10-15.50L17.10-15.50Q18.58-15.50 20.12-15.26L20.12-15.26L20.12-15.26Q21.66-15.01 22.89-14.37L22.89-14.37L22.89-14.37Q24.12-13.72 24.92-12.52L24.92-12.52L24.92-12.52Q25.72-11.32 25.72-9.47L25.72-9.47L25.72-9.47Q25.72-6.52 24.46-4.61L24.46-4.61L24.46-4.61Q23.19-2.71 21.13-1.60L21.13-1.60L21.13-1.60Q19.07-0.49 16.40-0.12L16.40-0.12L16.40-0.12Q13.72 0.25 10.89 0.06L10.89 0.06L10.89 0.06Q8.43 0.06 6.55-1.11L6.55-1.11L6.55-1.11Q4.68-2.28 3.41-4.06L3.41-4.06L3.41-4.06Q2.15-5.84 1.48-8.09L1.48-8.09L1.48-8.09Q0.80-10.34 0.80-12.49ZM17.78-13.17L17.78-13.17L17.78-13.17Q15.57-13.17 14.15-12.24L14.15-12.24L14.15-12.24Q12.74-11.32 11.94-9.87L11.94-9.87L11.94-9.87Q11.14-8.43 10.80-6.55L10.80-6.55L10.80-6.55Q10.46-4.68 10.46-2.77L10.46-2.77L10.46-2.77Q11.32-2.77 12.64-2.89L12.64-2.89L12.64-2.89Q13.97-3.01 15.41-3.32L15.41-3.32L15.41-3.32Q16.86-3.63 18.24-4.15L18.24-4.15L18.24-4.15Q19.63-4.68 20.76-5.41L20.76-5.41L20.76-5.41Q21.90-6.15 22.61-7.17L22.61-7.17L22.61-7.17Q23.32-8.18 23.32-9.47L23.32-9.47L23.32-9.47Q23.32-10.71 22.76-11.44L22.76-11.44L22.76-11.44Q22.21-12.18 21.38-12.58L21.38-12.58L21.38-12.58Q20.55-12.98 19.56-13.07L19.56-13.07L19.56-13.07Q18.58-13.17 17.78-13.17ZM27.75-12.98L28.98-14.15L28.98-14.15Q28.98-14.21 30.36-14.43L30.36-14.43L30.36-14.43Q31.75-14.64 33.90-14.89L33.90-14.89L33.90-14.89Q36.05-15.13 38.76-15.38L38.76-15.38L38.76-15.38Q41.47-15.63 44.24-15.87L44.24-15.87L44.24-15.87Q44.48-15.87 45.22-15.90L45.22-15.90L45.22-15.90Q45.96-15.93 46.73-15.97L46.73-15.97L46.73-15.97Q47.50-16.00 48.20-16.03L48.20-16.03L48.20-16.03Q48.91-16.06 49.22-16.06L49.22-16.06L49.22-16.06Q49.22-15.26 48.88-14.58L48.88-14.58L48.88-14.58Q48.54-13.90 47.80-13.54L47.80-13.54L47.80-13.54Q46.33-13.35 44.11-13.14L44.11-13.14L44.11-13.14Q41.90-12.92 39.56-12.67L39.56-12.67L39.56-12.67Q37.22-12.43 35.01-12.18L35.01-12.18L35.01-12.18Q32.79-11.94 31.32-11.81L31.32-11.81L31.32-11.81Q31.19-11.81 30.73-11.78L30.73-11.78L30.73-11.78Q30.27-11.75 30.02-11.75L30.02-11.75L30.02-11.75Q29.22-11.75 28.67-11.87L28.67-11.87L28.67-11.87Q28.12-12.00 27.75-12.98L27.75-12.98ZM56.60-7.26L56.60-7.26L56.60-7.26Q56.60-8.61 57.00-9.87L57.00-9.87L57.00-9.87Q57.40-11.14 57.86-12.30L57.86-12.30L57.86-12.30Q58.32-13.47 58.72-14.64L58.72-14.64L58.72-14.64Q59.12-15.81 59.12-17.17L59.12-17.17L59.12-17.17Q59.12-17.23 59.09-17.41L59.09-17.41L59.09-17.41Q59.06-17.60 59.06-17.72L59.06-17.72L59.06-17.72Q58.75-17.96 57.59-18.92L57.59-18.92L57.59-18.92Q56.42-19.87 55.19-21.16L55.19-21.16L55.19-21.16Q53.96-22.46 52.97-23.90L52.97-23.90L52.97-23.90Q51.99-25.35 51.99-26.52L51.99-26.52L51.99-26.52Q51.99-28.55 52.82-30.02L52.82-30.02L52.82-30.02Q53.65-31.50 55.03-32.48L55.03-32.48L55.03-32.48Q56.42-33.47 58.11-33.93L58.11-33.93L58.11-33.93Q59.80-34.39 61.58-34.39L61.58-34.39L61.58-34.39Q62.14-34.39 63.06-34.18L63.06-34.18L63.06-34.18Q63.98-33.96 65.03-33.53L65.03-33.53L65.03-33.53Q66.08-33.10 67.09-32.52L67.09-32.52L67.09-32.52Q68.11-31.93 68.84-31.25L68.84-31.25L68.84-31.25Q69.58-30.58 69.86-29.81L69.86-29.81L69.86-29.81Q70.14-29.04 69.71-28.30L69.71-28.30L64.97-20.06L64.97-20.06Q64.97-20.06 65.58-19.56L65.58-19.56L65.58-19.56Q66.20-19.07 67.12-18.30L67.12-18.30L67.12-18.30Q68.04-17.53 69.15-16.58L69.15-16.58L69.15-16.58Q70.26-15.63 71.18-14.67L71.18-14.67L71.18-14.67Q72.11-13.72 72.75-12.83L72.75-12.83L72.75-12.83Q73.40-11.94 73.40-11.38L73.40-11.38L73.40-11.38Q73.40-9.11 72.32-7.01L72.32-7.01L72.32-7.01Q71.24-4.92 69.55-3.32L69.55-3.32L69.55-3.32Q67.86-1.72 65.74-0.80L65.74-0.80L65.74-0.80Q63.62 0.12 61.40 0.12L61.40 0.12L61.40 0.12Q59.74 0.12 58.79-0.49L58.79-0.49L58.79-0.49Q57.83-1.11 57.34-2.12L57.34-2.12L57.34-2.12Q56.85-3.14 56.72-4.46L56.72-4.46L56.72-4.46Q56.60-5.78 56.60-7.26ZM59.00-7.26L59.00-7.26L59.00-7.26Q59.00-5.97 59.00-5.04L59.00-5.04L59.00-5.04Q59.00-4.12 59.28-3.51L59.28-3.51L59.28-3.51Q59.55-2.89 60.20-2.58L60.20-2.58L60.20-2.58Q60.85-2.28 62.14-2.28L62.14-2.28L62.14-2.28Q63.43-2.28 65.00-3.01L65.00-3.01L65.00-3.01Q66.57-3.75 67.86-4.98L67.86-4.98L67.86-4.98Q69.15-6.21 70.08-7.69L70.08-7.69L70.08-7.69Q71.00-9.17 71.00-10.58L71.00-10.58L71.00-10.58Q71.00-11.94 70.44-13.04L70.44-13.04L70.44-13.04Q69.89-14.15 68.97-14.95L68.97-14.95L68.97-14.95Q68.04-15.75 66.85-16.18L66.85-16.18L66.85-16.18Q65.65-16.61 64.35-16.61L64.35-16.61L64.35-16.61Q62.69-16.61 61.65-15.66L61.65-15.66L61.65-15.66Q60.60-14.70 60.02-13.29L60.02-13.29L60.02-13.29Q59.43-11.87 59.22-10.24L59.22-10.24L59.22-10.24Q59.00-8.61 59.00-7.26ZM54.33-26.46L54.33-26.46L54.33-26.46Q54.33-25.72 55.03-24.79L55.03-24.79L55.03-24.79Q55.74-23.87 56.76-23.10L56.76-23.10L56.76-23.10Q57.77-22.33 58.91-21.78L58.91-21.78L58.91-21.78Q60.05-21.23 60.85-21.23L60.85-21.23L60.85-21.23Q61.83-21.23 62.82-22.21L62.82-22.21L62.82-22.21Q63.80-23.19 64.54-24.52L64.54-24.52L64.54-24.52Q65.28-25.84 65.77-27.13L65.77-27.13L65.77-27.13Q66.26-28.42 66.26-28.98L66.26-28.98L66.26-28.98Q66.26-30.08 65.68-30.70L65.68-30.70L65.68-30.70Q65.09-31.32 64.26-31.62L64.26-31.62L64.26-31.62Q63.43-31.93 62.51-31.99L62.51-31.99L62.51-31.99Q61.58-32.05 60.85-32.05L60.85-32.05L60.85-32.05Q59.74-32.05 58.54-31.72L58.54-31.72L58.54-31.72Q57.34-31.38 56.42-30.67L56.42-30.67L56.42-30.67Q55.49-29.96 54.91-28.92L54.91-28.92L54.91-28.92Q54.33-27.87 54.33-26.46Z" fill="url(#editing-outline-gradient)"></path></g></g><style>text {
  font-size: 64px;
  font-family: Arial Black;
  dominant-baseline: central;
  text-anchor: middle;
}</style></svg>