<svg width="79.00625px" height="142.39999999999998px" xmlns="http://www.w3.org/2000/svg" viewBox="210.496875 3.8000000000000114 79.00625 142.39999999999998" style="background: rgba(0, 0, 0, 0);" preserveAspectRatio="xMidYMid"><defs><linearGradient id="editing-outline-gradient" x1="-0.5" x2="1.5" y1="0.5" y2="0.5"><stop offset="0" stop-color="#ff4000"></stop><stop offset="1" stop-color="#ee4208"></stop></linearGradient><filter id="editing-outline" x="-100%" y="-100%" width="300%" height="300%"><feMorphology in="SourceGraphic" operator="dilate" radius="3" result="outline"></feMorphology><feComposite operator="out" in="outline" in2="SourceAlpha"></feComposite></filter></defs><g filter="url(#editing-outline)"><g transform="translate(228.3100070953369, 92.2549991607666)"><path d="M5.78-7.26L5.78-7.26L5.78-7.26Q5.78-8.61 6.18-9.87L6.18-9.87L6.18-9.87Q6.58-11.14 7.04-12.30L7.04-12.30L7.04-12.30Q7.51-13.47 7.91-14.64L7.91-14.64L7.91-14.64Q8.31-15.81 8.31-17.17L8.31-17.17L8.31-17.17Q8.31-17.23 8.27-17.41L8.27-17.41L8.27-17.41Q8.24-17.60 8.24-17.72L8.24-17.72L8.24-17.72Q7.94-17.96 6.77-18.92L6.77-18.92L6.77-18.92Q5.60-19.87 4.37-21.16L4.37-21.16L4.37-21.16Q3.14-22.46 2.15-23.90L2.15-23.90L2.15-23.90Q1.17-25.35 1.17-26.52L1.17-26.52L1.17-26.52Q1.17-28.55 2.00-30.02L2.00-30.02L2.00-30.02Q2.83-31.50 4.21-32.48L4.21-32.48L4.21-32.48Q5.60-33.47 7.29-33.93L7.29-33.93L7.29-33.93Q8.98-34.39 10.77-34.39L10.77-34.39L10.77-34.39Q11.32-34.39 12.24-34.18L12.24-34.18L12.24-34.18Q13.17-33.96 14.21-33.53L14.21-33.53L14.21-33.53Q15.26-33.10 16.27-32.52L16.27-32.52L16.27-32.52Q17.29-31.93 18.03-31.25L18.03-31.25L18.03-31.25Q18.76-30.58 19.04-29.81L19.04-29.81L19.04-29.81Q19.32-29.04 18.89-28.30L18.89-28.30L14.15-20.06L14.15-20.06Q14.15-20.06 14.77-19.56L14.77-19.56L14.77-19.56Q15.38-19.07 16.30-18.30L16.30-18.30L16.30-18.30Q17.23-17.53 18.33-16.58L18.33-16.58L18.33-16.58Q19.44-15.63 20.36-14.67L20.36-14.67L20.36-14.67Q21.29-13.72 21.93-12.83L21.93-12.83L21.93-12.83Q22.58-11.94 22.58-11.38L22.58-11.38L22.58-11.38Q22.58-9.11 21.50-7.01L21.50-7.01L21.50-7.01Q20.43-4.92 18.73-3.32L18.73-3.32L18.73-3.32Q17.04-1.72 14.92-0.80L14.92-0.80L14.92-0.80Q12.80 0.12 10.58 0.12L10.58 0.12L10.58 0.12Q8.92 0.12 7.97-0.49L7.97-0.49L7.97-0.49Q7.01-1.11 6.52-2.12L6.52-2.12L6.52-2.12Q6.03-3.14 5.91-4.46L5.91-4.46L5.91-4.46Q5.78-5.78 5.78-7.26ZM8.18-7.26L8.18-7.26L8.18-7.26Q8.18-5.97 8.18-5.04L8.18-5.04L8.18-5.04Q8.18-4.12 8.46-3.51L8.46-3.51L8.46-3.51Q8.74-2.89 9.38-2.58L9.38-2.58L9.38-2.58Q10.03-2.28 11.32-2.28L11.32-2.28L11.32-2.28Q12.61-2.28 14.18-3.01L14.18-3.01L14.18-3.01Q15.75-3.75 17.04-4.98L17.04-4.98L17.04-4.98Q18.33-6.21 19.26-7.69L19.26-7.69L19.26-7.69Q20.18-9.17 20.18-10.58L20.18-10.58L20.18-10.58Q20.18-11.94 19.63-13.04L19.63-13.04L19.63-13.04Q19.07-14.15 18.15-14.95L18.15-14.95L18.15-14.95Q17.23-15.75 16.03-16.18L16.03-16.18L16.03-16.18Q14.83-16.61 13.54-16.61L13.54-16.61L13.54-16.61Q11.87-16.61 10.83-15.66L10.83-15.66L10.83-15.66Q9.78-14.70 9.20-13.29L9.20-13.29L9.20-13.29Q8.61-11.87 8.40-10.24L8.40-10.24L8.40-10.24Q8.18-8.61 8.18-7.26ZM3.51-26.46L3.51-26.46L3.51-26.46Q3.51-25.72 4.21-24.79L4.21-24.79L4.21-24.79Q4.92-23.87 5.94-23.10L5.94-23.10L5.94-23.10Q6.95-22.33 8.09-21.78L8.09-21.78L8.09-21.78Q9.23-21.23 10.03-21.23L10.03-21.23L10.03-21.23Q11.01-21.23 12.00-22.21L12.00-22.21L12.00-22.21Q12.98-23.19 13.72-24.52L13.72-24.52L13.72-24.52Q14.46-25.84 14.95-27.13L14.95-27.13L14.95-27.13Q15.44-28.42 15.44-28.98L15.44-28.98L15.44-28.98Q15.44-30.08 14.86-30.70L14.86-30.70L14.86-30.70Q14.27-31.32 13.44-31.62L13.44-31.62L13.44-31.62Q12.61-31.93 11.69-31.99L11.69-31.99L11.69-31.99Q10.77-32.05 10.03-32.05L10.03-32.05L10.03-32.05Q8.92-32.05 7.72-31.72L7.72-31.72L7.72-31.72Q6.52-31.38 5.60-30.67L5.60-30.67L5.60-30.67Q4.68-29.96 4.09-28.92L4.09-28.92L4.09-28.92Q3.51-27.87 3.51-26.46ZM24.79-17.04L24.30-19.63L31.56-20.06L31.56-27.44L31.56-27.44Q32.73-27.81 33.50-27.65L33.50-27.65L33.50-27.65Q34.27-27.50 34.70-26.98L34.70-26.98L34.70-26.98Q35.13-26.46 35.28-25.62L35.28-25.62L35.28-25.62Q35.44-24.79 35.47-23.90L35.47-23.90L35.47-23.90Q35.50-23.01 35.38-22.15L35.38-22.15L35.38-22.15Q35.25-21.29 35.13-20.73L35.13-20.73L42.21-20.73L42.21-18.89L42.21-18.89Q40.11-18.70 38.48-18.43L38.48-18.43L38.48-18.43Q36.85-18.15 35.75-17.32L35.75-17.32L35.75-17.32Q34.64-16.49 34.18-14.92L34.18-14.92L34.18-14.92Q33.71-13.35 33.90-10.58L33.90-10.58L33.90-10.58Q33.90-10.58 33.35-10.55L33.35-10.55L33.35-10.55Q32.79-10.52 32.15-10.49L32.15-10.49L32.15-10.49Q31.50-10.46 30.98-10.43L30.98-10.43L30.98-10.43Q30.45-10.40 30.45-10.40L30.45-10.40L30.45-10.40Q30.39-11.69 30.67-12.64L30.67-12.64L30.67-12.64Q30.95-13.60 31.19-14.33L31.19-14.33L31.19-14.33Q31.44-15.07 31.47-15.60L31.47-15.60L31.47-15.60Q31.50-16.12 30.88-16.43L30.88-16.43L30.88-16.43Q30.27-16.73 28.85-16.89L28.85-16.89L28.85-16.89Q27.44-17.04 24.79-17.04L24.79-17.04Z" fill="url(#editing-outline-gradient)"></path></g></g><style>text {
  font-size: 64px;
  font-family: Arial Black;
  dominant-baseline: central;
  text-anchor: middle;
}</style></svg>