<svg width="733.56875px" height="142.39999999999998px" xmlns="http://www.w3.org/2000/svg" viewBox="-116.78437500000001 3.8000000000000114 733.56875 142.39999999999998" style="background: rgba(0, 0, 0, 0);" preserveAspectRatio="xMidYMid"><defs><linearGradient id="editing-outline-gradient" x1="-0.5" x2="1.5" y1="0.5" y2="0.5"><stop offset="0" stop-color="#ff4000"></stop><stop offset="1" stop-color="#ee4208"></stop></linearGradient><filter id="editing-outline" x="-100%" y="-100%" width="300%" height="300%"><feMorphology in="SourceGraphic" operator="dilate" radius="3" result="outline"></feMorphology><feComposite operator="out" in="outline" in2="SourceAlpha"></feComposite></filter></defs><g filter="url(#editing-outline)"><g transform="translate(-12.400020599365234, 111.43126678466797)"><path d="M31.87 5.41L29.53-4.06L29.53-4.06Q27.13-2.83 25.29-2.09L25.29-2.09L25.29-2.09Q23.44-1.35 21.72-0.95L21.72-0.95L21.72-0.95Q20.00-0.55 18.24-0.43L18.24-0.43L18.24-0.43Q16.49-0.31 14.21-0.31L14.21-0.31L14.21-0.31Q11.20-0.31 8.80-1.02L8.80-1.02L8.80-1.02Q6.40-1.72 4.71-3.17L4.71-3.17L4.71-3.17Q3.01-4.61 2.09-6.86L2.09-6.86L2.09-6.86Q1.17-9.11 1.17-12.30L1.17-12.30L1.17-12.30Q1.17-15.20 1.75-18.40L1.75-18.40L1.75-18.40Q2.34-21.59 3.48-24.76L3.48-24.76L3.48-24.76Q4.61-27.93 6.31-30.85L6.31-30.85L6.31-30.85Q8.00-33.78 10.27-35.99L10.27-35.99L10.27-35.99Q12.55-38.21 15.38-39.53L15.38-39.53L15.38-39.53Q18.21-40.85 21.66-40.85L21.66-40.85L21.66-40.85Q22.95-40.85 24.73-40.57L24.73-40.57L24.73-40.57Q26.52-40.30 28.15-39.65L28.15-39.65L28.15-39.65Q29.78-39.01 30.88-37.81L30.88-37.81L30.88-37.81Q31.99-36.61 31.99-34.76L31.99-34.76L31.99-34.76Q31.99-34.08 31.35-34.11L31.35-34.11L31.35-34.11Q30.70-34.15 29.75-34.58L29.75-34.58L29.75-34.58Q28.79-35.01 27.59-35.68L27.59-35.68L27.59-35.68Q26.39-36.36 25.29-36.98L25.29-36.98L25.29-36.98Q24.18-37.59 23.26-38.02L23.26-38.02L23.26-38.02Q22.33-38.45 21.84-38.33L21.84-38.33L21.84-38.33Q18.89-38.33 16.49-37.19L16.49-37.19L16.49-37.19Q14.09-36.05 12.15-34.15L12.15-34.15L12.15-34.15Q10.21-32.24 8.77-29.75L8.77-29.75L8.77-29.75Q7.32-27.25 6.37-24.55L6.37-24.55L6.37-24.55Q5.41-21.84 4.95-19.16L4.95-19.16L4.95-19.16Q4.49-16.49 4.49-14.09L4.49-14.09L4.49-14.09Q4.06-11.20 4.83-9.07L4.83-9.07L4.83-9.07Q5.60-6.95 7.14-5.57L7.14-5.57L7.14-5.57Q8.67-4.18 10.83-3.51L10.83-3.51L10.83-3.51Q12.98-2.83 15.29-2.74L15.29-2.74L15.29-2.74Q17.60-2.65 19.87-3.17L19.87-3.17L19.87-3.17Q22.15-3.69 24.02-4.74L24.02-4.74L24.02-4.74Q25.90-5.78 27.10-7.32L27.10-7.32L27.10-7.32Q28.30-8.86 28.49-10.77L28.49-10.77L28.49-10.77Q28.49-12.74 27.72-14.09L27.72-14.09L27.72-14.09Q26.95-15.44 25.69-16.37L25.69-16.37L25.69-16.37Q24.42-17.29 22.79-17.84L22.79-17.84L22.79-17.84Q21.16-18.40 19.47-18.70L19.47-18.70L19.47-18.70Q17.78-19.01 16.09-19.13L16.09-19.13L16.09-19.13Q14.40-19.26 12.98-19.44L12.98-19.44L12.98-20.55L12.98-20.55Q12.98-20.67 14.61-20.98L14.61-20.98L14.61-20.98Q16.24-21.29 18.49-21.66L18.49-21.66L18.49-21.66Q20.73-22.03 23.13-22.39L23.13-22.39L23.13-22.39Q25.53-22.76 27.19-22.95L27.19-22.95L27.19-22.95Q27.19-22.95 27.50-22.98L27.50-22.98L27.50-22.98Q27.81-23.01 28.18-23.01L28.18-23.01L28.18-23.01Q28.55-23.01 28.92-23.01L28.92-23.01L28.92-23.01Q29.29-23.01 29.53-23.01L29.53-23.01L29.53-23.01Q29.65-23.01 29.99-23.01L29.99-23.01L29.99-23.01Q30.33-23.01 30.70-23.01L30.70-23.01L30.70-23.01Q31.07-23.01 31.41-22.98L31.41-22.98L31.41-22.98Q31.75-22.95 31.87-22.95L31.87-22.95L31.87-22.95Q31.93-22.09 32.02-20.21L32.02-20.21L32.02-20.21Q32.12-18.33 32.24-16.03L32.24-16.03L32.24-16.03Q32.36-13.72 32.48-11.14L32.48-11.14L32.48-11.14Q32.61-8.55 32.73-6.24L32.73-6.24L32.73-6.24Q32.85-3.94 32.95-2.09L32.95-2.09L32.95-2.09Q33.04-0.25 33.10 0.68L33.10 0.68L33.10 0.68Q33.10 0.92 33.10 1.60L33.10 1.60L33.10 1.60Q33.10 2.28 33.13 3.05L33.13 3.05L33.13 3.05Q33.16 3.81 33.16 4.46L33.16 4.46L33.16 4.46Q33.16 5.11 33.16 5.41L33.16 5.41L31.87 5.41ZM25.96-19.44L29.53-17.04L29.53-20.79L29.53-20.79Q28.61-20.79 27.62-20.33L27.62-20.33L27.62-20.33Q26.64-19.87 25.96-19.44L25.96-19.44ZM39.62 0.12L38.70-23.87L38.70-23.87Q39.44-23.87 39.96-23.93L39.96-23.93L39.96-23.93Q40.48-23.99 40.85-23.32L40.85-23.32L40.85-23.32Q41.04-20.55 41.28-17.69L41.28-17.69L41.28-17.69Q41.53-14.83 41.77-11.94L41.77-11.94L41.77-11.94Q42.02-9.04 42.11-6.12L42.11-6.12L42.11-6.12Q42.21-3.20 42.14-0.43L42.14-0.43L42.14-0.43Q42.14-0.06 41.96 0.03L41.96 0.03L41.96 0.03Q41.77 0.12 41.44 0.09L41.44 0.09L41.44 0.09Q41.10 0.06 40.64 0.03L40.64 0.03L40.64 0.03Q40.17 0 39.62 0.12L39.62 0.12ZM35.13-34.88L35.13-34.88L35.13-34.88Q35.13-35.31 35.19-35.84L35.19-35.84L35.19-35.84Q35.25-36.36 35.47-36.79L35.47-36.79L35.47-36.79Q35.68-37.22 36.02-37.53L36.02-37.53L36.02-37.53Q36.36-37.84 36.85-37.84L36.85-37.84L36.85-37.84Q37.59-37.84 38.33-37.78L38.33-37.78L38.33-37.78Q39.07-37.71 39.74-37.50L39.74-37.50L39.74-37.50Q40.42-37.28 40.85-36.82L40.85-36.82L40.85-36.82Q41.28-36.36 41.28-35.50L41.28-35.50L41.28-35.50Q41.28-34.02 40.17-32.88L40.17-32.88L40.17-32.88Q39.07-31.75 37.47-31.75L37.47-31.75L37.47-31.75Q36.24-31.75 35.68-32.70L35.68-32.70L35.68-32.70Q35.13-33.65 35.13-34.88ZM38.70-34.58L38.70-34.58L38.70-34.58Q38.51-34.58 38.51-34.27L38.51-34.27L38.51-34.27Q38.51-33.96 38.70-33.96L38.70-33.96L38.70-33.96Q38.94-33.96 38.94-34.27L38.94-34.27L38.94-34.27Q38.94-34.58 38.70-34.58ZM58.75 0.31L44.11-27.19L46.02-29.10L59.55-4.49L65.34-28.30L65.34-28.30Q65.77-28.12 66.26-28.02L66.26-28.02L66.26-28.02Q66.75-27.93 67.15-27.84L67.15-27.84L67.15-27.84Q67.55-27.75 67.80-27.62L67.80-27.62L67.80-27.62Q68.04-27.50 68.04-27.19L68.04-27.19L68.04-27.19Q67.25-23.26 66.54-19.81L66.54-19.81L66.54-19.81Q65.83-16.37 65.03-13.10L65.03-13.10L65.03-13.10Q64.23-9.84 63.31-6.55L63.31-6.55L63.31-6.55Q62.38-3.26 61.15 0.31L61.15 0.31L58.75 0.31ZM69.58-14.46L69.58-14.46L69.58-14.46Q69.58-16.30 70.38-18.55L70.38-18.55L70.38-18.55Q71.18-20.79 72.57-22.73L72.57-22.73L72.57-22.73Q73.95-24.67 75.70-25.99L75.70-25.99L75.70-25.99Q77.46-27.32 79.37-27.32L79.37-27.32L79.37-27.32Q80.41-27.32 81.43-26.89L81.43-26.89L81.43-26.89Q82.44-26.46 83.40-25.75L83.40-25.75L83.40-25.75Q84.35-25.04 85.12-24.15L85.12-24.15L85.12-24.15Q85.89-23.26 86.32-22.27L86.32-22.27L86.32-22.27Q86.75-21.29 86.78-20.36L86.78-20.36L86.78-20.36Q86.81-19.44 86.26-18.76L86.26-18.76L73.27-16.37L73.27-16.37Q73.03-16.30 72.84-15.78L72.84-15.78L72.84-15.78Q72.66-15.26 72.54-14.46L72.54-14.46L72.54-14.46Q72.41-13.66 72.32-12.70L72.32-12.70L72.32-12.70Q72.23-11.75 72.17-10.86L72.17-10.86L72.17-10.86Q72.11-9.97 72.11-9.26L72.11-9.26L72.11-9.26Q72.11-8.55 72.11-8.18L72.11-8.18L72.11-8.18Q72.11-6.46 72.94-5.38L72.94-5.38L72.94-5.38Q73.77-4.31 75.06-3.75L75.06-3.75L75.06-3.75Q76.35-3.20 77.98-3.01L77.98-3.01L77.98-3.01Q79.61-2.83 81.21-2.83L81.21-2.83L81.21-2.83Q82.81-2.83 84.23-2.95L84.23-2.95L84.23-2.95Q85.64-3.08 86.56-3.08L86.56-3.08L86.56-3.08Q86.56-2.83 86.38-2.52L86.38-2.52L86.38-2.52Q86.19-2.21 85.95-1.94L85.95-1.94L85.95-1.94Q85.70-1.66 85.46-1.45L85.46-1.45L85.46-1.45Q85.21-1.23 85.15-1.17L85.15-1.17L85.15-1.17Q84.66-1.05 83.64-0.83L83.64-0.83L83.64-0.83Q82.63-0.62 81.49-0.43L81.49-0.43L81.49-0.43Q80.35-0.25 79.37-0.12L79.37-0.12L79.37-0.12Q78.38 0 78.01 0L78.01 0L78.01 0Q76.10 0.37 74.69-0.06L74.69-0.06L74.69-0.06Q73.27-0.49 72.29-1.54L72.29-1.54L72.29-1.54Q71.31-2.58 70.69-4.09L70.69-4.09L70.69-4.09Q70.08-5.60 69.77-7.32L69.77-7.32L69.77-7.32Q69.46-9.04 69.43-10.89L69.43-10.89L69.43-10.89Q69.40-12.74 69.58-14.46ZM78.50-24.98L78.50-24.98L78.50-24.98Q77.95-24.98 77.06-24.39L77.06-24.39L77.06-24.39Q76.17-23.81 75.40-22.92L75.40-22.92L75.40-22.92Q74.63-22.03 74.10-21.01L74.10-21.01L74.10-21.01Q73.58-20.00 73.77-19.26L73.77-19.26L73.77-19.26Q75.37-19.07 77.09-19.32L77.09-19.32L77.09-19.32Q78.81-19.56 80.23-20.09L80.23-20.09L80.23-20.09Q81.64-20.61 82.56-21.32L82.56-21.32L82.56-21.32Q83.49-22.03 83.46-22.76L83.46-22.76L83.46-22.76Q83.43-23.50 82.29-24.09L82.29-24.09L82.29-24.09Q81.15-24.67 78.50-24.98ZM113.51-23.99L113.51-23.99L113.51-23.99Q114.25-23.99 115.11-23.63L115.11-23.63L115.11-23.63Q115.97-23.26 116.34-22.15L116.34-22.15L116.34-22.15Q116.83-24.24 117.85-25.53L117.85-25.53L117.85-25.53Q118.86-26.82 120.19-27.32L120.19-27.32L120.19-27.32Q121.51-27.81 122.95-27.65L122.95-27.65L122.95-27.65Q124.40-27.50 125.66-26.76L125.66-26.76L125.66-26.76Q126.92-26.02 127.88-24.86L127.88-24.86L127.88-24.86Q128.83-23.69 129.20-22.15L129.20-22.15L129.20-22.15Q129.88-24.06 131.01-25.69L131.01-25.69L131.01-25.69Q132.15-27.32 133.54-28.42L133.54-28.42L133.54-28.42Q134.92-29.53 136.43-29.96L136.43-29.96L136.43-29.96Q137.94-30.39 139.26-29.93L139.26-29.93L139.26-29.93Q140.58-29.47 141.60-27.96L141.60-27.96L141.60-27.96Q142.61-26.46 143.04-23.63L143.04-23.63L143.04-23.63Q143.17-22.83 143.35-21.26L143.35-21.26L143.35-21.26Q143.53-19.69 143.75-17.72L143.75-17.72L143.75-17.72Q143.96-15.75 144.24-13.57L144.24-13.57L144.24-13.57Q144.52-11.38 144.73-9.41L144.73-9.41L144.73-9.41Q144.95-7.44 145.13-5.88L145.13-5.88L145.13-5.88Q145.32-4.31 145.44-3.57L145.44-3.57L145.44-3.57Q145.44-2.95 145.38-2.21L145.38-2.21L145.38-2.21Q145.32-1.48 145.10-0.95L145.10-0.95L145.10-0.95Q144.89-0.43 144.43-0.28L144.43-0.28L144.43-0.28Q143.96-0.12 143.04-0.80L143.04-0.80L143.04-0.80Q143.04-1.54 142.86-3.20L142.86-3.20L142.86-3.20Q142.67-4.86 142.49-7.04L142.49-7.04L142.49-7.04Q142.30-9.23 142.03-11.66L142.03-11.66L142.03-11.66Q141.75-14.09 141.47-16.24L141.47-16.24L141.47-16.24Q141.20-18.40 141.01-20.06L141.01-20.06L141.01-20.06Q140.83-21.72 140.64-22.39L140.64-22.39L140.64-22.39Q139.72-25.22 138.70-26.33L138.70-26.33L138.70-26.33Q137.69-27.44 136.67-27.32L136.67-27.32L136.67-27.32Q135.66-27.19 134.74-26.02L134.74-26.02L134.74-26.02Q133.81-24.86 133.08-23.07L133.08-23.07L133.08-23.07Q132.34-21.29 131.69-19.10L131.69-19.10L131.69-19.10Q131.04-16.92 130.71-14.77L130.71-14.77L130.71-14.77Q130.37-12.61 130.28-10.71L130.28-10.71L130.28-10.71Q130.18-8.80 130.49-7.57L130.49-7.57L128.09-7.08L128.09-7.08Q128.28-12.98 127.69-16.77L127.69-16.77L127.69-16.77Q127.11-20.55 126.09-22.58L126.09-22.58L126.09-22.58Q125.08-24.61 123.79-25.01L123.79-25.01L123.79-25.01Q122.49-25.41 121.23-24.49L121.23-24.49L121.23-24.49Q119.97-23.56 118.92-21.41L118.92-21.41L118.92-21.41Q117.88-19.26 117.36-16.21L117.36-16.21L117.36-16.21Q116.83-13.17 116.96-9.35L116.96-9.35L116.96-9.35Q117.08-5.54 118.25-1.17L118.25-1.17L115.91-1.17L115.91-1.17Q115.91-1.17 115.76-2.34L115.76-2.34L115.76-2.34Q115.60-3.51 115.39-5.32L115.39-5.32L115.39-5.32Q115.17-7.14 114.93-9.44L114.93-9.44L114.93-9.44Q114.68-11.75 114.43-14.12L114.43-14.12L114.43-14.12Q114.19-16.49 113.94-18.67L113.94-18.67L113.94-18.67Q113.70-20.86 113.51-22.39L113.51-22.39L113.51-22.39Q113.51-22.58 113.51-23.23L113.51-23.23L113.51-23.23Q113.51-23.87 113.51-23.99ZM148.52-14.46L148.52-14.46L148.52-14.46Q148.52-16.30 149.32-18.55L149.32-18.55L149.32-18.55Q150.12-20.79 151.50-22.73L151.50-22.73L151.50-22.73Q152.89-24.67 154.64-25.99L154.64-25.99L154.64-25.99Q156.39-27.32 158.30-27.32L158.30-27.32L158.30-27.32Q159.35-27.32 160.36-26.89L160.36-26.89L160.36-26.89Q161.38-26.46 162.33-25.75L162.33-25.75L162.33-25.75Q163.28-25.04 164.05-24.15L164.05-24.15L164.05-24.15Q164.82-23.26 165.25-22.27L165.25-22.27L165.25-22.27Q165.68-21.29 165.71-20.36L165.71-20.36L165.71-20.36Q165.74-19.44 165.19-18.76L165.19-18.76L152.21-16.37L152.21-16.37Q151.96-16.30 151.78-15.78L151.78-15.78L151.78-15.78Q151.59-15.26 151.47-14.46L151.47-14.46L151.47-14.46Q151.35-13.66 151.26-12.70L151.26-12.70L151.26-12.70Q151.16-11.75 151.10-10.86L151.10-10.86L151.10-10.86Q151.04-9.97 151.04-9.26L151.04-9.26L151.04-9.26Q151.04-8.55 151.04-8.18L151.04-8.18L151.04-8.18Q151.04-6.46 151.87-5.38L151.87-5.38L151.87-5.38Q152.70-4.31 153.99-3.75L153.99-3.75L153.99-3.75Q155.29-3.20 156.92-3.01L156.92-3.01L156.92-3.01Q158.55-2.83 160.15-2.83L160.15-2.83L160.15-2.83Q161.75-2.83 163.16-2.95L163.16-2.95L163.16-2.95Q164.58-3.08 165.50-3.08L165.50-3.08L165.50-3.08Q165.50-2.83 165.31-2.52L165.31-2.52L165.31-2.52Q165.13-2.21 164.88-1.94L164.88-1.94L164.88-1.94Q164.64-1.66 164.39-1.45L164.39-1.45L164.39-1.45Q164.14-1.23 164.08-1.17L164.08-1.17L164.08-1.17Q163.59-1.05 162.58-0.83L162.58-0.83L162.58-0.83Q161.56-0.62 160.42-0.43L160.42-0.43L160.42-0.43Q159.28-0.25 158.30-0.12L158.30-0.12L158.30-0.12Q157.32 0 156.95 0L156.95 0L156.95 0Q155.04 0.37 153.62-0.06L153.62-0.06L153.62-0.06Q152.21-0.49 151.22-1.54L151.22-1.54L151.22-1.54Q150.24-2.58 149.63-4.09L149.63-4.09L149.63-4.09Q149.01-5.60 148.70-7.32L148.70-7.32L148.70-7.32Q148.39-9.04 148.36-10.89L148.36-10.89L148.36-10.89Q148.33-12.74 148.52-14.46ZM157.44-24.98L157.44-24.98L157.44-24.98Q156.88-24.98 155.99-24.39L155.99-24.39L155.99-24.39Q155.10-23.81 154.33-22.92L154.33-22.92L154.33-22.92Q153.56-22.03 153.04-21.01L153.04-21.01L153.04-21.01Q152.52-20.00 152.70-19.26L152.70-19.26L152.70-19.26Q154.30-19.07 156.02-19.32L156.02-19.32L156.02-19.32Q157.75-19.56 159.16-20.09L159.16-20.09L159.16-20.09Q160.58-20.61 161.50-21.32L161.50-21.32L161.50-21.32Q162.42-22.03 162.39-22.76L162.39-22.76L162.39-22.76Q162.36-23.50 161.22-24.09L161.22-24.09L161.22-24.09Q160.08-24.67 157.44-24.98ZM192.45-5.29L192.45-5.29L192.45-5.29Q192.45-8.80 194.38-10.40L194.38-10.40L194.38-10.40Q196.32-12.00 199.46-12.00L199.46-12.00L199.46-12.00Q200.69-12.00 201.77-11.94L201.77-11.94L201.77-11.94Q202.84-11.87 203.83-11.63L203.83-11.63L203.83-11.63Q204.81-11.38 205.77-10.89L205.77-10.89L205.77-10.89Q206.72-10.40 207.76-9.47L207.76-9.47L207.76-9.47Q207.76-9.66 207.80-10.24L207.80-10.24L207.80-10.24Q207.83-10.83 207.83-11.50L207.83-11.50L207.83-11.50Q207.83-12.18 207.83-12.77L207.83-12.77L207.83-12.77Q207.83-13.35 207.83-13.60L207.83-13.60L207.83-13.60Q207.76-14.70 207.76-16.46L207.76-16.46L207.76-16.46Q207.76-18.21 207.49-20.06L207.49-20.06L207.49-20.06Q207.21-21.90 206.38-23.56L206.38-23.56L206.38-23.56Q205.55-25.22 203.70-26.09L203.70-26.09L203.70-26.09Q202.41-26.09 201.30-25.66L201.30-25.66L201.30-25.66Q200.20-25.22 199.09-24.73L199.09-24.73L199.09-24.73Q197.98-24.24 196.88-23.84L196.88-23.84L196.88-23.84Q195.77-23.44 194.48-23.44L194.48-23.44L194.48-23.44Q194.48-24.98 195.43-25.99L195.43-25.99L195.43-25.99Q196.38-27.01 197.74-27.56L197.74-27.56L197.74-27.56Q199.09-28.12 200.57-28.30L200.57-28.30L200.57-28.30Q202.04-28.49 203.15-28.49L203.15-28.49L203.15-28.49Q204.26-28.30 205.21-28.05L205.21-28.05L205.21-28.05Q206.17-27.81 207.00-27.07L207.00-27.07L207.00-27.07Q207.83-26.33 208.53-24.82L208.53-24.82L208.53-24.82Q209.24-23.32 209.76-20.61L209.76-20.61L209.76-20.61Q210.29-17.90 210.69-13.75L210.69-13.75L210.69-13.75Q211.09-9.60 211.33-3.57L211.33-3.57L211.33-3.57Q211.46-2.77 210.81-2.18L210.81-2.18L210.81-2.18Q210.16-1.60 209.06-1.20L209.06-1.20L209.06-1.20Q207.95-0.80 206.56-0.52L206.56-0.52L206.56-0.52Q205.18-0.25 203.77-0.12L203.77-0.12L203.77-0.12Q202.35 0 201.06 0.06L201.06 0.06L201.06 0.06Q199.77 0.12 198.91 0.12L198.91 0.12L198.91 0.12Q197.80 0.12 196.66-0.25L196.66-0.25L196.66-0.25Q195.52-0.62 194.57-1.32L194.57-1.32L194.57-1.32Q193.61-2.03 193.03-3.05L193.03-3.05L193.03-3.05Q192.45-4.06 192.45-5.29ZM200.44-9.60L200.44-9.60L200.44-9.60Q197.37-8.74 196.14-7.54L196.14-7.54L196.14-7.54Q194.91-6.34 195.06-5.23L195.06-5.23L195.06-5.23Q195.21-4.12 196.51-3.23L196.51-3.23L196.51-3.23Q197.80-2.34 199.64-2.06L199.64-2.06L199.64-2.06Q201.49-1.78 203.64-2.37L203.64-2.37L203.64-2.37Q205.80-2.95 207.76-4.68L207.76-4.68L207.76-4.68Q207.03-6.46 206.29-7.41L206.29-7.41L206.29-7.41Q205.55-8.37 204.69-8.86L204.69-8.86L204.69-8.86Q203.83-9.35 202.78-9.47L202.78-9.47L202.78-9.47Q201.74-9.60 200.44-9.60ZM237.05-40.11L239.45-40.11L239.45-40.11Q239.70-37.90 239.97-35.22L239.97-35.22L239.97-35.22Q240.25-32.55 240.43-29.75L240.43-29.75L240.43-29.75Q240.62-26.95 240.68-24.15L240.68-24.15L240.68-24.15Q240.74-21.35 240.62-18.89L240.62-18.89L240.62-18.89Q241.60-19.75 242.43-20.40L242.43-20.40L242.43-20.40Q243.26-21.04 244.09-21.53L244.09-21.53L244.09-21.53Q244.92-22.03 245.76-22.27L245.76-22.27L245.76-22.27Q246.59-22.52 247.69-22.52L247.69-22.52L247.69-22.52Q249.91-22.52 251.75-21.44L251.75-21.44L251.75-21.44Q253.60-20.36 254.89-18.61L254.89-18.61L254.89-18.61Q256.18-16.86 256.89-14.73L256.89-14.73L256.89-14.73Q257.60-12.61 257.60-10.58L257.60-10.58L257.60-10.58Q257.48-7.14 256.18-5.08L256.18-5.08L256.18-5.08Q254.89-3.01 252.77-1.91L252.77-1.91L252.77-1.91Q250.65-0.80 247.79-0.62L247.79-0.62L247.79-0.62Q244.92-0.43 241.79-0.68L241.79-0.68L241.79-3.57L241.79-3.57Q242.89-2.58 243.82-2.43L243.82-2.43L243.82-2.43Q244.74-2.28 246.03-2.28L246.03-2.28L246.03-2.28Q248.06-2.28 249.72-2.89L249.72-2.89L249.72-2.89Q251.38-3.51 252.58-4.65L252.58-4.65L252.58-4.65Q253.78-5.78 254.43-7.38L254.43-7.38L254.43-7.38Q255.08-8.98 255.08-10.89L255.08-10.89L255.08-10.89Q255.08-12.55 254.89-13.84L254.89-13.84L254.89-13.84Q254.71-15.13 254.06-16.18L254.06-16.18L254.06-16.18Q253.42-17.23 252.18-18.18L252.18-18.18L252.18-18.18Q250.95-19.13 248.86-20.06L248.86-20.06L248.86-20.06Q248.74-20.12 248.31-20.15L248.31-20.15L248.31-20.15Q247.88-20.18 247.69-20.18L247.69-20.18L247.69-20.18Q246.71-20.18 245.72-19.60L245.72-19.60L245.72-19.60Q244.74-19.01 243.94-18.12L243.94-18.12L243.94-18.12Q243.14-17.23 242.59-16.15L242.59-16.15L242.59-16.15Q242.03-15.07 241.79-14.15L241.79-14.15L241.79-14.15Q241.66-13.41 241.45-11.54L241.45-11.54L241.45-11.54Q241.23-9.66 240.96-7.51L240.96-7.51L240.96-7.51Q240.68-5.35 240.50-3.45L240.50-3.45L240.50-3.45Q240.31-1.54 240.19-0.80L240.19-0.80L238.28-1.17L237.05-40.11ZM260.86-14.46L260.86-14.46L260.86-14.46Q260.86-16.30 261.66-18.55L261.66-18.55L261.66-18.55Q262.46-20.79 263.84-22.73L263.84-22.73L263.84-22.73Q265.23-24.67 266.98-25.99L266.98-25.99L266.98-25.99Q268.73-27.32 270.64-27.32L270.64-27.32L270.64-27.32Q271.69-27.32 272.70-26.89L272.70-26.89L272.70-26.89Q273.72-26.46 274.67-25.75L274.67-25.75L274.67-25.75Q275.63-25.04 276.39-24.15L276.39-24.15L276.39-24.15Q277.16-23.26 277.59-22.27L277.59-22.27L277.59-22.27Q278.02-21.29 278.06-20.36L278.06-20.36L278.06-20.36Q278.09-19.44 277.53-18.76L277.53-18.76L264.55-16.37L264.55-16.37Q264.30-16.30 264.12-15.78L264.12-15.78L264.12-15.78Q263.94-15.26 263.81-14.46L263.81-14.46L263.81-14.46Q263.69-13.66 263.60-12.70L263.60-12.70L263.60-12.70Q263.50-11.75 263.44-10.86L263.44-10.86L263.44-10.86Q263.38-9.97 263.38-9.26L263.38-9.26L263.38-9.26Q263.38-8.55 263.38-8.18L263.38-8.18L263.38-8.18Q263.38-6.46 264.21-5.38L264.21-5.38L264.21-5.38Q265.04-4.31 266.33-3.75L266.33-3.75L266.33-3.75Q267.63-3.20 269.26-3.01L269.26-3.01L269.26-3.01Q270.89-2.83 272.49-2.83L272.49-2.83L272.49-2.83Q274.09-2.83 275.50-2.95L275.50-2.95L275.50-2.95Q276.92-3.08 277.84-3.08L277.84-3.08L277.84-3.08Q277.84-2.83 277.66-2.52L277.66-2.52L277.66-2.52Q277.47-2.21 277.22-1.94L277.22-1.94L277.22-1.94Q276.98-1.66 276.73-1.45L276.73-1.45L276.73-1.45Q276.49-1.23 276.42-1.17L276.42-1.17L276.42-1.17Q275.93-1.05 274.92-0.83L274.92-0.83L274.92-0.83Q273.90-0.62 272.76-0.43L272.76-0.43L272.76-0.43Q271.63-0.25 270.64-0.12L270.64-0.12L270.64-0.12Q269.66 0 269.29 0L269.29 0L269.29 0Q267.38 0.37 265.97-0.06L265.97-0.06L265.97-0.06Q264.55-0.49 263.57-1.54L263.57-1.54L263.57-1.54Q262.58-2.58 261.97-4.09L261.97-4.09L261.97-4.09Q261.35-5.60 261.04-7.32L261.04-7.32L261.04-7.32Q260.74-9.04 260.71-10.89L260.71-10.89L260.71-10.89Q260.67-12.74 260.86-14.46ZM269.78-24.98L269.78-24.98L269.78-24.98Q269.23-24.98 268.33-24.39L268.33-24.39L268.33-24.39Q267.44-23.81 266.67-22.92L266.67-22.92L266.67-22.92Q265.90-22.03 265.38-21.01L265.38-21.01L265.38-21.01Q264.86-20.00 265.04-19.26L265.04-19.26L265.04-19.26Q266.64-19.07 268.37-19.32L268.37-19.32L268.37-19.32Q270.09-19.56 271.50-20.09L271.50-20.09L271.50-20.09Q272.92-20.61 273.84-21.32L273.84-21.32L273.84-21.32Q274.76-22.03 274.73-22.76L274.73-22.76L274.73-22.76Q274.70-23.50 273.56-24.09L273.56-24.09L273.56-24.09Q272.43-24.67 269.78-24.98ZM280.18-8.92L280.18-8.92L280.18-8.92Q280.18-10.58 280.73-12.58L280.73-12.58L280.73-12.58Q281.29-14.58 282.33-16.27L282.33-16.27L282.33-16.27Q283.38-17.96 284.85-19.07L284.85-19.07L284.85-19.07Q286.33-20.18 288.30-20.18L288.30-20.18L288.30-20.18Q289.78-20.18 290.91-19.90L290.91-19.90L290.91-19.90Q292.05-19.63 293.07-18.98L293.07-18.98L293.07-18.98Q294.08-18.33 294.97-17.44L294.97-17.44L294.97-17.44Q295.87-16.55 296.85-15.38L296.85-15.38L296.48-46.94L296.48-46.94Q298.14-47.56 298.54-47.43L298.54-47.43L298.54-47.43Q298.94-47.31 298.94-46.39L298.94-46.39L298.94-46.39Q298.94-46.27 298.91-46.02L298.91-46.02L298.91-46.02Q298.88-45.77 298.88-45.71L298.88-45.71L298.88-45.71Q298.82-44.54 298.79-42.39L298.79-42.39L298.79-42.39Q298.76-40.24 298.79-37.41L298.79-37.41L298.79-37.41Q298.82-34.58 298.88-31.28L298.88-31.28L298.88-31.28Q298.94-27.99 299.00-24.64L299.00-24.64L299.00-24.64Q299.07-21.29 299.16-18.00L299.16-18.00L299.16-18.00Q299.25-14.70 299.28-11.87L299.28-11.87L299.28-11.87Q299.31-9.04 299.28-6.86L299.28-6.86L299.28-6.86Q299.25-4.68 299.19-3.57L299.19-3.57L299.19-3.57Q298.51-2.15 297.31-1.42L297.31-1.42L297.31-1.42Q296.11-0.68 294.73-0.34L294.73-0.34L294.73-0.34Q293.34 0 291.87 0.06L291.87 0.06L291.87 0.06Q290.39 0.12 289.10 0.12L289.10 0.12L289.10 0.12Q284.98 0.12 282.58-2.31L282.58-2.31L282.58-2.31Q280.18-4.74 280.18-8.92ZM282.64-10.58L282.64-10.58L282.64-10.58Q282.64-9.04 282.88-7.54L282.88-7.54L282.88-7.54Q283.13-6.03 283.75-4.86L283.75-4.86L283.75-4.86Q284.36-3.69 285.47-2.98L285.47-2.98L285.47-2.98Q286.58-2.28 288.30-2.28L288.30-2.28L288.30-2.28Q289.34-2.28 290.82-2.28L290.82-2.28L290.82-2.28Q292.30-2.28 293.65-2.61L293.65-2.61L293.65-2.61Q295.00-2.95 295.93-3.69L295.93-3.69L295.93-3.69Q296.85-4.43 296.85-5.78L296.85-5.78L296.85-5.78Q296.85-7.38 296.39-9.44L296.39-9.44L296.39-9.44Q295.93-11.50 294.97-13.38L294.97-13.38L294.97-13.38Q294.02-15.26 292.57-16.58L292.57-16.58L292.57-16.58Q291.13-17.90 289.16-17.90L289.16-17.90L289.16-17.90Q287.87-17.90 286.70-17.23L286.70-17.23L286.70-17.23Q285.53-16.55 284.64-15.50L284.64-15.50L284.64-15.50Q283.75-14.46 283.19-13.17L283.19-13.17L283.19-13.17Q282.64-11.87 282.64-10.58ZM309.28-22.33L309.28-22.33L309.28-22.33Q308.72-22.52 307.77-22.49L307.77-22.49L307.77-22.49Q306.82-22.46 305.74-22.36L305.74-22.36L305.74-22.36Q304.66-22.27 303.68-22.15L303.68-22.15L303.68-22.15Q302.70-22.03 302.02-22.03L302.02-22.03L302.02-22.03Q301.71-22.03 301.62-22.92L301.62-22.92L301.62-22.92Q301.53-23.81 301.34-25.35L301.34-25.35L310.02-25.96L310.02-25.96Q310.20-28.12 310.26-29.04L310.26-29.04L310.26-29.04Q310.32-29.96 310.29-30.61L310.29-30.61L310.29-30.61Q310.26-31.25 310.23-32.08L310.23-32.08L310.23-32.08Q310.20-32.92 310.20-34.70L310.20-34.70L310.20-34.70Q311.80-34.95 312.63-34.85L312.63-34.85L312.63-34.85Q313.46-34.76 313.77-34.39L313.77-34.39L313.77-34.39Q314.08-34.02 314.05-33.31L314.05-33.31L314.05-33.31Q314.02-32.61 313.86-31.56L313.86-31.56L313.86-31.56Q313.71-30.52 313.62-29.04L313.62-29.04L313.62-29.04Q313.52-27.56 313.71-25.72L313.71-25.72L321.09-25.96L321.09-22.95L321.09-22.95Q320.60-22.95 319.55-22.89L319.55-22.89L319.55-22.89Q318.51-22.83 317.31-22.76L317.31-22.76L317.31-22.76Q316.11-22.70 315.09-22.64L315.09-22.64L315.09-22.64Q314.08-22.58 313.58-22.39L313.58-22.39L313.58-22.39Q313.09-20.18 312.54-17.66L312.54-17.66L312.54-17.66Q311.99-15.13 311.80-12.67L311.80-12.67L311.80-12.67Q311.62-10.21 311.92-8.09L311.92-8.09L311.92-8.09Q312.23-5.97 313.46-4.58L313.46-4.58L313.46-4.58Q314.69-3.20 316.97-2.68L316.97-2.68L316.97-2.68Q319.25-2.15 323.00-3.01L323.00-3.01L323.00-3.01Q322.88-2.09 322.29-1.51L322.29-1.51L322.29-1.51Q321.71-0.92 320.94-0.58L320.94-0.58L320.94-0.58Q320.17-0.25 319.31-0.09L319.31-0.09L319.31-0.09Q318.45 0.06 317.77 0.06L317.77 0.06L317.77 0.06Q314.63 0.06 312.79-1.08L312.79-1.08L312.79-1.08Q310.94-2.21 310.02-4.06L310.02-4.06L310.02-4.06Q309.09-5.91 308.85-8.27L308.85-8.27L308.85-8.27Q308.60-10.64 308.69-13.10L308.69-13.10L308.69-13.10Q308.79-15.57 309.03-17.96L309.03-17.96L309.03-17.96Q309.28-20.36 309.28-22.33ZM328.97 0.12L328.04-23.87L328.04-23.87Q328.78-23.87 329.30-23.93L329.30-23.93L329.30-23.93Q329.83-23.99 330.20-23.32L330.20-23.32L330.20-23.32Q330.38-20.55 330.63-17.69L330.63-17.69L330.63-17.69Q330.87-14.83 331.12-11.94L331.12-11.94L331.12-11.94Q331.37-9.04 331.46-6.12L331.46-6.12L331.46-6.12Q331.55-3.20 331.49-0.43L331.49-0.43L331.49-0.43Q331.49-0.06 331.30 0.03L331.30 0.03L331.30 0.03Q331.12 0.12 330.78 0.09L330.78 0.09L330.78 0.09Q330.44 0.06 329.98 0.03L329.98 0.03L329.98 0.03Q329.52 0 328.97 0.12L328.97 0.12ZM324.47-34.88L324.47-34.88L324.47-34.88Q324.47-35.31 324.54-35.84L324.54-35.84L324.54-35.84Q324.60-36.36 324.81-36.79L324.81-36.79L324.81-36.79Q325.03-37.22 325.37-37.53L325.37-37.53L325.37-37.53Q325.71-37.84 326.20-37.84L326.20-37.84L326.20-37.84Q326.94-37.84 327.67-37.78L327.67-37.78L327.67-37.78Q328.41-37.71 329.09-37.50L329.09-37.50L329.09-37.50Q329.77-37.28 330.20-36.82L330.20-36.82L330.20-36.82Q330.63-36.36 330.63-35.50L330.63-35.50L330.63-35.50Q330.63-34.02 329.52-32.88L329.52-32.88L329.52-32.88Q328.41-31.75 326.81-31.75L326.81-31.75L326.81-31.75Q325.58-31.75 325.03-32.70L325.03-32.70L325.03-32.70Q324.47-33.65 324.47-34.88ZM328.04-34.58L328.04-34.58L328.04-34.58Q327.86-34.58 327.86-34.27L327.86-34.27L327.86-34.27Q327.86-33.96 328.04-33.96L328.04-33.96L328.04-33.96Q328.29-33.96 328.29-34.27L328.29-34.27L328.29-34.27Q328.29-34.58 328.04-34.58ZM334.01-23.99L334.01-23.99L334.01-23.99Q334.75-23.99 335.61-23.63L335.61-23.63L335.61-23.63Q336.47-23.26 336.84-22.15L336.84-22.15L336.84-22.15Q337.33-24.24 338.35-25.53L338.35-25.53L338.35-25.53Q339.36-26.82 340.69-27.32L340.69-27.32L340.69-27.32Q342.01-27.81 343.45-27.65L343.45-27.65L343.45-27.65Q344.90-27.50 346.16-26.76L346.16-26.76L346.16-26.76Q347.42-26.02 348.38-24.86L348.38-24.86L348.38-24.86Q349.33-23.69 349.70-22.15L349.70-22.15L349.70-22.15Q350.38-24.06 351.51-25.69L351.51-25.69L351.51-25.69Q352.65-27.32 354.04-28.42L354.04-28.42L354.04-28.42Q355.42-29.53 356.93-29.96L356.93-29.96L356.93-29.96Q358.44-30.39 359.76-29.93L359.76-29.93L359.76-29.93Q361.08-29.47 362.10-27.96L362.10-27.96L362.10-27.96Q363.11-26.46 363.54-23.63L363.54-23.63L363.54-23.63Q363.67-22.83 363.85-21.26L363.85-21.26L363.85-21.26Q364.03-19.69 364.25-17.72L364.25-17.72L364.25-17.72Q364.46-15.75 364.74-13.57L364.74-13.57L364.74-13.57Q365.02-11.38 365.23-9.41L365.23-9.41L365.23-9.41Q365.45-7.44 365.63-5.88L365.63-5.88L365.63-5.88Q365.82-4.31 365.94-3.57L365.94-3.57L365.94-3.57Q365.94-2.95 365.88-2.21L365.88-2.21L365.88-2.21Q365.82-1.48 365.60-0.95L365.60-0.95L365.60-0.95Q365.39-0.43 364.93-0.28L364.93-0.28L364.93-0.28Q364.46-0.12 363.54-0.80L363.54-0.80L363.54-0.80Q363.54-1.54 363.36-3.20L363.36-3.20L363.36-3.20Q363.17-4.86 362.99-7.04L362.99-7.04L362.99-7.04Q362.80-9.23 362.53-11.66L362.53-11.66L362.53-11.66Q362.25-14.09 361.97-16.24L361.97-16.24L361.97-16.24Q361.70-18.40 361.51-20.06L361.51-20.06L361.51-20.06Q361.33-21.72 361.14-22.39L361.14-22.39L361.14-22.39Q360.22-25.22 359.20-26.33L359.20-26.33L359.20-26.33Q358.19-27.44 357.17-27.32L357.17-27.32L357.17-27.32Q356.16-27.19 355.24-26.02L355.24-26.02L355.24-26.02Q354.31-24.86 353.58-23.07L353.58-23.07L353.58-23.07Q352.84-21.29 352.19-19.10L352.19-19.10L352.19-19.10Q351.54-16.92 351.21-14.77L351.21-14.77L351.21-14.77Q350.87-12.61 350.78-10.71L350.78-10.71L350.78-10.71Q350.68-8.80 350.99-7.57L350.99-7.57L348.59-7.08L348.59-7.08Q348.78-12.98 348.19-16.77L348.19-16.77L348.19-16.77Q347.61-20.55 346.59-22.58L346.59-22.58L346.59-22.58Q345.58-24.61 344.29-25.01L344.29-25.01L344.29-25.01Q342.99-25.41 341.73-24.49L341.73-24.49L341.73-24.49Q340.47-23.56 339.42-21.41L339.42-21.41L339.42-21.41Q338.38-19.26 337.86-16.21L337.86-16.21L337.86-16.21Q337.33-13.17 337.46-9.35L337.46-9.35L337.46-9.35Q337.58-5.54 338.75-1.17L338.75-1.17L336.41-1.17L336.41-1.17Q336.41-1.17 336.26-2.34L336.26-2.34L336.26-2.34Q336.10-3.51 335.89-5.32L335.89-5.32L335.89-5.32Q335.67-7.14 335.43-9.44L335.43-9.44L335.43-9.44Q335.18-11.75 334.93-14.12L334.93-14.12L334.93-14.12Q334.69-16.49 334.44-18.67L334.44-18.67L334.44-18.67Q334.20-20.86 334.01-22.39L334.01-22.39L334.01-22.39Q334.01-22.58 334.01-23.23L334.01-23.23L334.01-23.23Q334.01-23.87 334.01-23.99ZM369.02-14.46L369.02-14.46L369.02-14.46Q369.02-16.30 369.82-18.55L369.82-18.55L369.82-18.55Q370.62-20.79 372.00-22.73L372.00-22.73L372.00-22.73Q373.39-24.67 375.14-25.99L375.14-25.99L375.14-25.99Q376.89-27.32 378.80-27.32L378.80-27.32L378.80-27.32Q379.85-27.32 380.86-26.89L380.86-26.89L380.86-26.89Q381.88-26.46 382.83-25.75L382.83-25.75L382.83-25.75Q383.78-25.04 384.55-24.15L384.55-24.15L384.55-24.15Q385.32-23.26 385.75-22.27L385.75-22.27L385.75-22.27Q386.18-21.29 386.21-20.36L386.21-20.36L386.21-20.36Q386.24-19.44 385.69-18.76L385.69-18.76L372.71-16.37L372.71-16.37Q372.46-16.30 372.28-15.78L372.28-15.78L372.28-15.78Q372.09-15.26 371.97-14.46L371.97-14.46L371.97-14.46Q371.85-13.66 371.76-12.70L371.76-12.70L371.76-12.70Q371.66-11.75 371.60-10.86L371.60-10.86L371.60-10.86Q371.54-9.97 371.54-9.26L371.54-9.26L371.54-9.26Q371.54-8.55 371.54-8.18L371.54-8.18L371.54-8.18Q371.54-6.46 372.37-5.38L372.37-5.38L372.37-5.38Q373.20-4.31 374.49-3.75L374.49-3.75L374.49-3.75Q375.79-3.20 377.42-3.01L377.42-3.01L377.42-3.01Q379.05-2.83 380.65-2.83L380.65-2.83L380.65-2.83Q382.25-2.83 383.66-2.95L383.66-2.95L383.66-2.95Q385.08-3.08 386.00-3.08L386.00-3.08L386.00-3.08Q386.00-2.83 385.81-2.52L385.81-2.52L385.81-2.52Q385.63-2.21 385.38-1.94L385.38-1.94L385.38-1.94Q385.14-1.66 384.89-1.45L384.89-1.45L384.89-1.45Q384.64-1.23 384.58-1.17L384.58-1.17L384.58-1.17Q384.09-1.05 383.08-0.83L383.08-0.83L383.08-0.83Q382.06-0.62 380.92-0.43L380.92-0.43L380.92-0.43Q379.78-0.25 378.80-0.12L378.80-0.12L378.80-0.12Q377.82 0 377.45 0L377.45 0L377.45 0Q375.54 0.37 374.12-0.06L374.12-0.06L374.12-0.06Q372.71-0.49 371.72-1.54L371.72-1.54L371.72-1.54Q370.74-2.58 370.13-4.09L370.13-4.09L370.13-4.09Q369.51-5.60 369.20-7.32L369.20-7.32L369.20-7.32Q368.89-9.04 368.86-10.89L368.86-10.89L368.86-10.89Q368.83-12.74 369.02-14.46ZM377.94-24.98L377.94-24.98L377.94-24.98Q377.38-24.98 376.49-24.39L376.49-24.39L376.49-24.39Q375.60-23.81 374.83-22.92L374.83-22.92L374.83-22.92Q374.06-22.03 373.54-21.01L373.54-21.01L373.54-21.01Q373.02-20.00 373.20-19.26L373.20-19.26L373.20-19.26Q374.80-19.07 376.52-19.32L376.52-19.32L376.52-19.32Q378.25-19.56 379.66-20.09L379.66-20.09L379.66-20.09Q381.08-20.61 382.00-21.32L382.00-21.32L382.00-21.32Q382.92-22.03 382.89-22.76L382.89-22.76L382.89-22.76Q382.86-23.50 381.72-24.09L381.72-24.09L381.72-24.09Q380.58-24.67 377.94-24.98ZM416.21-4.98L416.21-4.98L416.21-4.98Q417.31-4.98 418.27-4.55L418.27-4.55L418.27-4.55Q419.22-4.12 420.14-3.60L420.14-3.60L420.14-3.60Q421.07-3.08 422.02-2.68L422.02-2.68L422.02-2.68Q422.97-2.28 424.08-2.28L424.08-2.28L424.08-2.28Q425.37-2.28 426.76-2.74L426.76-2.74L426.76-2.74Q428.14-3.20 429.31-4.03L429.31-4.03L429.31-4.03Q430.48-4.86 431.22-6.06L431.22-6.06L431.22-6.06Q431.96-7.26 431.96-8.67L431.96-8.67L431.96-8.67Q432.02-9.11 431.99-9.72L431.99-9.72L431.99-9.72Q431.96-10.34 431.59-10.98L431.59-10.98L431.59-10.98Q431.22-11.63 430.36-12.21L430.36-12.21L430.36-12.21Q429.50-12.80 427.86-13.10L427.86-13.10L427.86-13.10Q426.23-13.41 423.77-13.44L423.77-13.44L423.77-13.44Q421.31-13.47 417.68-12.98L417.68-12.98L417.68-12.98Q416.76-12.98 415.90-13.50L415.90-13.50L415.90-13.50Q415.04-14.03 414.36-14.80L414.36-14.80L414.36-14.80Q413.68-15.57 413.25-16.46L413.25-16.46L413.25-16.46Q412.82-17.35 412.82-18.15L412.82-18.15L412.82-18.15Q412.82-20.55 413.84-22.06L413.84-22.06L413.84-22.06Q414.85-23.56 416.45-24.46L416.45-24.46L416.45-24.46Q418.05-25.35 420.02-25.72L420.02-25.72L420.02-25.72Q421.99-26.09 424.02-26.09L424.02-26.09L424.02-26.09Q424.94-26.09 426.14-25.99L426.14-25.99L426.14-25.99Q427.34-25.90 428.36-25.50L428.36-25.50L428.36-25.50Q429.37-25.10 430.08-24.24L430.08-24.24L430.08-24.24Q430.79-23.38 430.79-21.84L430.79-21.84L430.79-21.84Q430.66-20.79 430.45-20.58L430.45-20.58L430.45-20.58Q430.23-20.36 429.83-20.70L429.83-20.70L429.83-20.70Q429.43-21.04 428.88-21.66L428.88-21.66L428.88-21.66Q428.33-22.27 427.56-22.86L427.56-22.86L427.56-22.86Q426.79-23.44 425.71-23.75L425.71-23.75L425.71-23.75Q424.63-24.06 423.28-23.75L423.28-23.75L423.28-23.75Q421.87-23.75 420.45-23.47L420.45-23.47L420.45-23.47Q419.04-23.19 417.90-22.52L417.90-22.52L417.90-22.52Q416.76-21.84 416.05-20.67L416.05-20.67L416.05-20.67Q415.34-19.50 415.34-17.72L415.34-17.72L415.34-17.72Q415.34-16.80 416.18-16.46L416.18-16.46L416.18-16.46Q417.01-16.12 418.39-16.12L418.39-16.12L418.39-16.12Q419.77-16.12 421.53-16.21L421.53-16.21L421.53-16.21Q423.28-16.30 425.13-16.30L425.13-16.30L425.13-16.30Q426.97-16.30 428.70-16.03L428.70-16.03L428.70-16.03Q430.42-15.75 431.74-14.92L431.74-14.92L431.74-14.92Q433.06-14.09 433.80-12.55L433.80-12.55L433.80-12.55Q434.54-11.01 434.36-8.55L434.36-8.55L434.36-8.55Q434.36-6.77 433.34-5.17L433.34-5.17L433.34-5.17Q432.33-3.57 430.76-2.37L430.76-2.37L430.76-2.37Q429.19-1.17 427.28-0.49L427.28-0.49L427.28-0.49Q425.37 0.18 423.59 0L423.59 0L423.59 0Q422.85-0.06 421.59-0.40L421.59-0.40L421.59-0.40Q420.33-0.74 419.13-1.35L419.13-1.35L419.13-1.35Q417.93-1.97 417.07-2.86L417.07-2.86L417.07-2.86Q416.21-3.75 416.21-4.98ZM444.75-22.33L444.75-22.33L444.75-22.33Q444.20-22.52 443.25-22.49L443.25-22.49L443.25-22.49Q442.29-22.46 441.22-22.36L441.22-22.36L441.22-22.36Q440.14-22.27 439.15-22.15L439.15-22.15L439.15-22.15Q438.17-22.03 437.49-22.03L437.49-22.03L437.49-22.03Q437.19-22.03 437.09-22.92L437.09-22.92L437.09-22.92Q437.00-23.81 436.82-25.35L436.82-25.35L445.49-25.96L445.49-25.96Q445.68-28.12 445.74-29.04L445.74-29.04L445.74-29.04Q445.80-29.96 445.77-30.61L445.77-30.61L445.77-30.61Q445.74-31.25 445.71-32.08L445.71-32.08L445.71-32.08Q445.68-32.92 445.68-34.70L445.68-34.70L445.68-34.70Q447.28-34.95 448.11-34.85L448.11-34.85L448.11-34.85Q448.94-34.76 449.24-34.39L449.24-34.39L449.24-34.39Q449.55-34.02 449.52-33.31L449.52-33.31L449.52-33.31Q449.49-32.61 449.34-31.56L449.34-31.56L449.34-31.56Q449.18-30.52 449.09-29.04L449.09-29.04L449.09-29.04Q449.00-27.56 449.18-25.72L449.18-25.72L456.57-25.96L456.57-22.95L456.57-22.95Q456.07-22.95 455.03-22.89L455.03-22.89L455.03-22.89Q453.98-22.83 452.78-22.76L452.78-22.76L452.78-22.76Q451.58-22.70 450.57-22.64L450.57-22.64L450.57-22.64Q449.55-22.58 449.06-22.39L449.06-22.39L449.06-22.39Q448.57-20.18 448.01-17.66L448.01-17.66L448.01-17.66Q447.46-15.13 447.28-12.67L447.28-12.67L447.28-12.67Q447.09-10.21 447.40-8.09L447.40-8.09L447.40-8.09Q447.71-5.97 448.94-4.58L448.94-4.58L448.94-4.58Q450.17-3.20 452.44-2.68L452.44-2.68L452.44-2.68Q454.72-2.15 458.47-3.01L458.47-3.01L458.47-3.01Q458.35-2.09 457.77-1.51L457.77-1.51L457.77-1.51Q457.18-0.92 456.41-0.58L456.41-0.58L456.41-0.58Q455.64-0.25 454.78-0.09L454.78-0.09L454.78-0.09Q453.92 0.06 453.24 0.06L453.24 0.06L453.24 0.06Q450.11 0.06 448.26-1.08L448.26-1.08L448.26-1.08Q446.41-2.21 445.49-4.06L445.49-4.06L445.49-4.06Q444.57-5.91 444.32-8.27L444.32-8.27L444.32-8.27Q444.08-10.64 444.17-13.10L444.17-13.10L444.17-13.10Q444.26-15.57 444.51-17.96L444.51-17.96L444.51-17.96Q444.75-20.36 444.75-22.33ZM460.87-11.26L460.87-11.26L460.87-11.26Q460.87-12.67 461.12-14.55L461.12-14.55L461.12-14.55Q461.36-16.43 461.92-18.33L461.92-18.33L461.92-18.33Q462.47-20.24 463.30-22.09L463.30-22.09L463.30-22.09Q464.13-23.93 465.30-25.38L465.30-25.38L465.30-25.38Q466.47-26.82 468.01-27.72L468.01-27.72L468.01-27.72Q469.55-28.61 471.45-28.61L471.45-28.61L471.45-28.61Q473.42-28.61 475.11-27.25L475.11-27.25L475.11-27.25Q476.81-25.90 478.01-23.75L478.01-23.75L478.01-23.75Q479.21-21.59 479.82-18.95L479.82-18.95L479.82-18.95Q480.44-16.30 480.31-13.78L480.31-13.78L480.31-13.78Q480.31-10.09 478.90-7.20L478.90-7.20L478.90-7.20Q477.48-4.31 475.30-2.52L475.30-2.52L475.30-2.52Q473.12-0.74 470.62-0.12L470.62-0.12L470.62-0.12Q468.13 0.49 465.95-0.46L465.95-0.46L465.95-0.46Q463.76-1.42 462.32-4.06L462.32-4.06L462.32-4.06Q460.87-6.71 460.87-11.26ZM463.15-11.01L463.15-11.01L463.15-11.01Q463.33-7.26 464.44-5.23L464.44-5.23L464.44-5.23Q465.55-3.20 467.12-2.55L467.12-2.55L467.12-2.55Q468.69-1.91 470.53-2.52L470.53-2.52L470.53-2.52Q472.38-3.14 473.98-4.71L473.98-4.71L473.98-4.71Q475.58-6.28 476.71-8.64L476.71-8.64L476.71-8.64Q477.85-11.01 477.98-13.97L477.98-13.97L477.98-13.97Q478.10-16.18 477.64-18.27L477.64-18.27L477.64-18.27Q477.18-20.36 476.35-21.99L476.35-21.99L476.35-21.99Q475.51-23.63 474.31-24.58L474.31-24.58L474.31-24.58Q473.12-25.53 471.58-25.53L471.58-25.53L471.58-25.53Q470.10-25.53 468.93-24.79L468.93-24.79L468.93-24.79Q467.76-24.06 466.81-22.79L466.81-22.79L466.81-22.79Q465.86-21.53 465.18-19.93L465.18-19.93L465.18-19.93Q464.50-18.33 464.04-16.73L464.04-16.73L464.04-16.73Q463.58-15.13 463.36-13.63L463.36-13.63L463.36-13.63Q463.15-12.12 463.15-11.01ZM483.02-23.99L483.02-23.99L483.02-23.99Q483.76-24.30 484.31-24.12L484.31-24.12L484.31-24.12Q484.87-23.93 485.24-23.44L485.24-23.44L485.24-23.44Q485.60-22.95 485.79-22.30L485.79-22.30L485.79-22.30Q485.97-21.66 486.10-21.04L486.10-21.04L486.10-21.04Q486.90-22.39 488.40-23.23L488.40-23.23L488.40-23.23Q489.91-24.06 491.63-24.33L491.63-24.33L491.63-24.33Q493.36-24.61 495.08-24.46L495.08-24.46L495.08-24.46Q496.80-24.30 498.00-23.72L498.00-23.72L498.00-23.72Q499.20-23.13 499.69-22.12L499.69-22.12L499.69-22.12Q500.19-21.10 499.45-19.75L499.45-19.75L499.45-19.75Q497.85-20.67 496.09-21.23L496.09-21.23L496.09-21.23Q494.34-21.78 492.68-21.59L492.68-21.59L492.68-21.59Q491.02-21.41 489.60-20.33L489.60-20.33L489.60-20.33Q488.19-19.26 487.27-16.92L487.27-16.92L487.27-16.92Q486.34-14.58 486.13-10.74L486.13-10.74L486.13-10.74Q485.91-6.89 486.65-1.17L486.65-1.17L484.31-1.17L484.31-1.17Q484.31-1.17 484.22-2.18L484.22-2.18L484.22-2.18Q484.13-3.20 484.04-4.86L484.04-4.86L484.04-4.86Q483.94-6.52 483.79-8.55L483.79-8.55L483.79-8.55Q483.64-10.58 483.51-12.67L483.51-12.67L483.51-12.67Q483.39-14.77 483.30-16.70L483.30-16.70L483.30-16.70Q483.21-18.64 483.08-20.06L483.08-20.06L483.08-20.06Q483.08-20.24 483.05-20.79L483.05-20.79L483.05-20.79Q483.02-21.35 483.02-21.99L483.02-21.99L483.02-21.99Q483.02-22.64 483.02-23.19L483.02-23.19L483.02-23.19Q483.02-23.75 483.02-23.99ZM516.98 25.41L514.21 25.22L514.21 25.22Q514.21 22.15 514.77 18.89L514.77 18.89L514.77 18.89Q515.32 15.63 515.90 12.37L515.90 12.37L515.90 12.37Q516.49 9.11 516.89 5.84L516.89 5.84L516.89 5.84Q517.29 2.58 516.98-0.55L516.98-0.55L501.66-26.52L501.66-26.52Q503.02-27.75 503.82-27.90L503.82-27.90L503.82-27.90Q504.62-28.05 504.74-27.93L504.74-27.93L504.74-27.93Q505.17-27.32 506.18-25.66L506.18-25.66L506.18-25.66Q507.20-23.99 508.52-21.78L508.52-21.78L508.52-21.78Q509.84-19.56 511.32-17.10L511.32-17.10L511.32-17.10Q512.80-14.64 514.12-12.43L514.12-12.43L514.12-12.43Q515.44-10.21 516.40-8.49L516.40-8.49L516.40-8.49Q517.35-6.77 517.72-6.09L517.72-6.09L520.55-28.92L523.63-27.38L516.98 25.41Z" fill="url(#editing-outline-gradient)"></path></g></g><style>text {
  font-size: 64px;
  font-family: Arial Black;
  dominant-baseline: central;
  text-anchor: middle;
}</style></svg>