<svg width="80.148388671875px" height="142.39999999999998px" xmlns="http://www.w3.org/2000/svg" viewBox="209.9258056640625 3.8000000000000114 80.148388671875 142.39999999999998" style="background: rgba(0, 0, 0, 0);" preserveAspectRatio="xMidYMid"><defs><linearGradient id="editing-outline-gradient" x1="-0.5" x2="1.5" y1="0.5" y2="0.5"><stop offset="0" stop-color="#ff4000"></stop><stop offset="1" stop-color="#ee4208"></stop></linearGradient><filter id="editing-outline" x="-100%" y="-100%" width="300%" height="300%"><feMorphology in="SourceGraphic" operator="dilate" radius="3" result="outline"></feMorphology><feComposite operator="out" in="outline" in2="SourceAlpha"></feComposite></filter></defs><g filter="url(#editing-outline)"><g transform="translate(227.90659964084625, 91.09000015258789)"><path d="M0.86-12.98L2.09-14.15L2.09-14.15Q2.09-14.21 3.48-14.43L3.48-14.43L3.48-14.43Q4.86-14.64 7.01-14.89L7.01-14.89L7.01-14.89Q9.17-15.13 11.87-15.38L11.87-15.38L11.87-15.38Q14.58-15.63 17.35-15.87L17.35-15.87L17.35-15.87Q17.60-15.87 18.33-15.90L18.33-15.90L18.33-15.90Q19.07-15.93 19.84-15.97L19.84-15.97L19.84-15.97Q20.61-16.00 21.32-16.03L21.32-16.03L21.32-16.03Q22.03-16.06 22.33-16.06L22.33-16.06L22.33-16.06Q22.33-15.26 21.99-14.58L21.99-14.58L21.99-14.58Q21.66-13.90 20.92-13.54L20.92-13.54L20.92-13.54Q19.44-13.35 17.23-13.14L17.23-13.14L17.23-13.14Q15.01-12.92 12.67-12.67L12.67-12.67L12.67-12.67Q10.34-12.43 8.12-12.18L8.12-12.18L8.12-12.18Q5.91-11.94 4.43-11.81L4.43-11.81L4.43-11.81Q4.31-11.81 3.85-11.78L3.85-11.78L3.85-11.78Q3.38-11.75 3.14-11.75L3.14-11.75L3.14-11.75Q2.34-11.75 1.78-11.87L1.78-11.87L1.78-11.87Q1.23-12.00 0.86-12.98L0.86-12.98ZM30.45-2.34L39.87-16.49L25.72-28.30L25.72-31.87L25.72-31.87Q26.21-31.44 27.22-30.61L27.22-30.61L27.22-30.61Q28.24-29.78 29.53-28.73L29.53-28.73L29.53-28.73Q30.82-27.69 32.21-26.52L32.21-26.52L32.21-26.52Q33.59-25.35 34.88-24.33L34.88-24.33L34.88-24.33Q36.18-23.32 37.19-22.49L37.19-22.49L37.19-22.49Q38.21-21.66 38.76-21.29L38.76-21.29L38.76-21.29Q39.31-20.86 40.11-20.52L40.11-20.52L40.11-20.52Q40.91-20.18 41.68-19.72L41.68-19.72L41.68-19.72Q42.45-19.26 43.00-18.67L43.00-18.67L43.00-18.67Q43.56-18.09 43.56-17.17L43.56-17.17L43.56-17.17Q43.56-17.04 43.53-16.83L43.53-16.83L43.53-16.83Q43.50-16.61 43.44-16.49L43.44-16.49L43.44-16.49Q43.00-15.93 42.21-14.73L42.21-14.73L42.21-14.73Q41.41-13.54 40.36-12.03L40.36-12.03L40.36-12.03Q39.31-10.52 38.14-8.83L38.14-8.83L38.14-8.83Q36.98-7.14 35.93-5.63L35.93-5.63L35.93-5.63Q34.88-4.12 34.05-2.92L34.05-2.92L34.05-2.92Q33.22-1.72 32.85-1.17L32.85-1.17L32.85-1.17Q32.30-0.49 31.81-0.09L31.81-0.09L31.81-0.09Q31.32 0.31 30.45 0.31L30.45 0.31L30.45-2.34Z" fill="url(#editing-outline-gradient)"></path></g></g><style>text {
  font-size: 64px;
  font-family: Arial Black;
  dominant-baseline: central;
  text-anchor: middle;
}</style></svg>